<svg version="1.1" id="Layer_1" xmlns="http://www.w3.org/2000/svg" xmlns:xlink="http://www.w3.org/1999/xlink" x="0px" y="0px"
	 width="100%" viewBox="0 0 1190 188" enable-background="new 0 0 1190 188" xml:space="preserve">
<path fill="#FFFFFF" opacity="1.000000" stroke="none" 
	d="
M937.000000,189.000000 
	C626.500000,189.000000 316.000000,189.004150 5.500066,188.858688 
	C4.211054,188.858078 0.872537,191.328461 1.468431,186.501617 
	C7.247701,186.003128 12.564164,186.136353 17.865582,185.912781 
	C19.259142,185.854004 21.190508,185.062241 21.881878,183.975388 
	C27.332804,175.406311 32.542889,166.684036 38.001186,157.704819 
	C43.065884,149.606094 47.956490,141.811447 53.012493,133.706696 
	C57.817047,125.613869 62.456207,117.831177 67.396400,109.889008 
	C72.829643,101.162514 77.961861,92.595490 83.396225,83.873520 
	C87.240639,78.244514 90.782913,72.770447 94.505531,67.017685 
	C98.333099,73.382881 101.958771,79.412300 105.709213,85.764633 
	C107.274956,88.859520 108.594505,91.703262 110.181679,94.388840 
	C113.684814,100.316307 117.322777,106.164101 120.968040,112.401108 
	C125.649818,120.847282 130.269287,128.936752 134.953369,137.380341 
	C139.657791,146.184982 144.297592,154.635513 148.988647,163.458496 
	C149.305176,164.731857 149.570465,165.632751 150.037888,167.220093 
	C143.825821,167.495239 138.076065,167.942276 132.324295,167.969620 
	C112.843201,168.062210 93.361160,167.961441 73.880165,168.063995 
	C71.463921,168.076721 67.967148,168.014893 66.835205,169.453934 
	C62.994770,174.336273 59.991188,179.876862 56.379944,185.624329 
	C100.324516,185.624329 142.991714,185.624329 186.641541,185.624329 
	C181.351089,177.177094 176.506149,169.441177 171.631470,161.328705 
	C166.610992,152.545059 161.620255,144.138016 156.591949,135.354416 
	C151.735306,126.640648 146.916245,118.303436 142.043991,109.609268 
	C136.943314,100.508690 131.895813,91.765083 126.779404,82.684830 
	C123.070229,76.085800 119.504700,69.778511 115.774544,63.570152 
	C107.406578,49.642735 92.569031,46.557121 80.007118,56.561291 
	C71.583435,63.269825 67.443893,73.144936 62.534256,82.777168 
	C57.167984,91.655785 52.057556,100.284492 46.666424,109.110077 
	C41.893166,117.188095 37.400608,125.069229 32.609032,133.114777 
	C27.509327,141.507095 22.708645,149.734985 17.625406,158.152237 
	C11.895233,167.227737 6.447616,176.113861 0.999999,185.000000 
	C1.000000,123.689919 1.000000,62.379833 1.000000,1.000000 
	C318.023315,1.000000 635.046631,1.000000 952.355286,1.282811 
	C950.793945,4.053215 948.947266,6.540808 946.934937,9.326974 
	C945.220032,12.089744 943.670715,14.553939 941.951660,17.316879 
	C940.231689,20.085144 938.681519,22.554665 936.953918,25.352516 
	C933.643311,31.839638 934.354919,32.995777 941.296387,33.008865 
	C944.425537,33.014763 947.603638,32.657822 950.673096,33.085838 
	C956.286194,33.868549 960.154846,31.602110 963.361450,26.928501 
	C965.932922,23.888899 968.207153,21.004107 970.795654,18.051950 
	C973.421631,15.673032 975.733337,13.361478 978.353271,10.889765 
	C982.136169,7.903036 982.345337,4.627229 980.000000,1.000000 
	C1050.217285,1.000000 1120.434448,1.000000 1191.000000,1.000000 
	C1191.000000,17.355009 1191.000000,33.712490 1190.531372,50.539013 
	C1181.848511,51.008053 1173.634277,51.008053 1165.146484,51.008053 
	C1165.146484,59.503136 1165.146484,67.256760 1165.096802,75.475868 
	C1165.415527,84.299789 1165.783936,92.658218 1166.101929,101.481705 
	C1166.087158,111.301537 1166.122681,120.656311 1166.102417,130.476105 
	C1166.084229,139.297653 1166.121826,147.654205 1166.105469,156.401154 
	C1165.966797,158.317123 1165.882080,159.842682 1165.737793,162.441849 
	C1162.064453,158.062714 1159.082886,154.508087 1155.947754,150.650970 
	C1147.479370,139.238159 1139.164185,128.127869 1130.785156,116.688141 
	C1129.737183,115.052849 1128.734131,113.760948 1127.772461,112.438835 
	C1121.126831,103.302032 1114.489868,94.158974 1107.780029,84.691269 
	C1104.464355,80.214966 1101.462769,75.842117 1097.917969,71.966072 
	C1092.074463,65.576416 1086.581909,58.540794 1079.673462,53.523556 
	C1068.398804,45.335426 1049.338501,52.191528 1046.916992,65.422958 
	C1045.741333,71.846840 1045.702759,78.478821 1045.098755,85.481644 
	C1045.084839,93.633904 1045.121460,101.321098 1045.102173,109.473480 
	C1045.084595,116.963379 1045.123047,123.988106 1045.106689,131.477692 
	C1045.088867,140.298676 1045.125732,148.654800 1045.105713,157.475708 
	C1045.048950,167.155319 1045.048950,176.370148 1045.048950,185.633911 
	C1053.662109,185.633911 1061.666382,185.633911 1069.836548,185.633911 
	C1069.836548,175.509766 1069.836548,165.760361 1069.901123,155.545197 
	C1069.923462,147.057190 1069.881104,139.034973 1069.902588,130.546661 
	C1069.925293,123.056480 1069.884155,116.032372 1069.901855,108.542488 
	C1069.923828,100.058487 1069.886963,92.040268 1069.905029,83.651779 
	C1070.050415,82.083817 1070.140991,80.886139 1070.285767,78.970627 
	C1073.180176,82.037872 1075.562134,84.561935 1078.104004,87.378845 
	C1086.488403,98.141312 1094.712769,108.610916 1103.097168,119.378433 
	C1111.558594,130.786575 1119.859741,141.896805 1128.230469,153.330429 
	C1129.640869,155.322357 1130.907593,157.057602 1132.335693,158.648087 
	C1139.192139,166.284851 1145.762573,174.219406 1153.085327,181.383041 
	C1158.543945,186.722992 1165.585693,187.941132 1173.290527,186.446106 
	C1182.802124,184.600464 1187.957764,178.559067 1191.000000,170.000000 
	C1191.000000,176.322418 1191.000000,182.644836 1191.000000,189.000000 
	C1114.310059,189.000000 1037.619995,189.000000 960.680786,188.640732 
	C964.022705,187.858353 967.635254,187.567596 971.201538,186.990509 
	C993.623291,183.362244 1010.378723,172.538574 1017.936157,149.636948 
	C1019.063660,143.843567 1020.101990,138.434662 1021.460510,132.752136 
	C1021.801697,127.659721 1021.822815,122.840904 1021.909302,117.568161 
	C1021.597290,113.081917 1021.219910,109.049606 1020.902954,104.600327 
	C1020.335327,101.110832 1019.707275,98.038322 1019.047852,94.581024 
	C1017.959534,91.137688 1016.902527,88.079140 1015.769348,84.684517 
	C1013.809998,81.227341 1011.926880,78.106247 1009.904175,74.675598 
	C1006.516541,71.231224 1003.268494,68.096397 999.867676,64.656746 
	C986.010315,53.769135 969.634827,52.047012 953.300415,51.231796 
	C943.974915,50.766384 934.400635,51.567287 925.197815,53.232193 
	C911.151184,55.773396 898.108887,60.976791 888.664795,73.093079 
	C886.822021,76.042671 885.273315,78.816872 883.478760,81.852753 
	C881.792175,86.064743 880.351440,90.015053 878.625366,94.217056 
	C877.610229,98.319885 876.880432,102.171028 876.100586,106.471512 
	C876.001099,109.933617 875.951599,112.946396 875.595215,116.225754 
	C875.578735,120.333931 875.869141,124.175522 876.104980,128.459290 
	C876.415588,132.937302 876.780945,136.973114 877.233887,141.377533 
	C878.829468,146.173340 880.337463,150.600540 881.924194,155.386108 
	C888.958984,171.738525 901.531189,180.894638 918.055542,185.049072 
	C924.306335,186.620605 930.681519,187.697586 937.000000,189.000000 
M673.032043,137.158142 
	C671.970154,129.779617 670.908264,122.401093 670.027100,114.228134 
	C672.713806,106.493088 675.400513,98.758041 678.641113,90.650780 
	C683.742126,81.054527 692.617004,76.210541 702.898010,72.029327 
	C712.061401,70.935089 721.200623,69.276581 730.393982,68.883339 
	C743.109558,68.339432 755.866150,68.710365 768.604736,68.770386 
	C772.813599,68.790207 777.888367,70.639893 781.056458,68.900841 
	C788.614075,64.752167 795.271729,58.964054 803.431030,53.007107 
	C800.404297,53.007107 798.823364,53.007042 797.242493,53.007122 
	C770.277527,53.008484 743.312256,52.925713 716.347778,53.041687 
	C699.214661,53.115376 684.506226,59.478542 671.337219,71.284088 
	C666.939636,77.864899 662.542114,84.445709 657.789551,91.685104 
	C654.896118,99.196518 652.203003,106.747711 653.054871,115.950417 
	C653.753235,123.638741 654.451599,131.327072 655.327148,139.722870 
	C658.508972,146.157806 661.690796,152.592743 665.010437,159.722412 
	C670.029602,164.761902 675.048828,169.801376 680.665771,175.188843 
	C691.612915,183.588913 704.202209,187.584473 717.785583,187.913879 
	C734.424683,188.317398 751.084351,187.813675 767.728210,188.102661 
	C775.139526,188.231354 781.945374,188.096985 787.486267,181.951553 
	C791.801514,177.165527 796.923645,173.107056 802.040527,168.400314 
	C784.106201,168.915848 767.075806,169.405396 749.498901,169.240982 
	C736.688843,168.493881 723.886902,167.491226 711.066040,167.083099 
	C701.364868,166.774292 693.312256,163.069702 685.804260,156.348038 
	C681.572510,150.218948 677.340820,144.089874 673.032043,137.158142 
M604.049194,74.933411 
	C604.417297,82.293472 604.785339,89.653534 605.050720,97.943909 
	C605.085693,106.299736 605.120667,114.655556 605.047852,123.941483 
	C605.084656,133.299316 605.121460,142.657166 605.051270,152.895920 
	C605.051270,155.729645 605.051270,158.563385 605.051270,162.217590 
	C602.499084,159.958298 600.803711,158.457443 598.996704,156.264511 
	C597.309937,154.106644 595.648987,151.927917 593.931213,149.795029 
	C589.671814,144.506271 585.386414,139.238449 581.000183,133.262115 
	C574.684021,124.480179 568.367859,115.698242 561.972290,106.220024 
	C560.303467,103.783432 558.730042,101.274475 556.947205,98.924355 
	C552.377808,92.901001 547.715271,86.948250 542.990051,80.270996 
	C536.446472,72.472443 530.230530,64.366859 523.280884,56.948753 
	C513.375671,46.375931 489.642700,48.726288 485.457001,67.320168 
	C484.386810,72.074203 484.546997,77.105217 484.039276,82.940254 
	C484.075317,91.298500 484.111359,99.656754 484.044434,108.945251 
	C484.082397,117.300545 484.120392,125.655830 484.046539,134.941132 
	C484.084656,142.964355 484.122772,150.987579 484.047852,159.940414 
	C484.047852,168.489838 484.047852,177.039276 484.047852,185.635040 
	C492.663635,185.635040 500.666016,185.635040 508.838928,185.635040 
	C508.838928,176.177979 508.838928,167.094391 508.967682,157.079056 
	C508.925629,149.056427 508.883606,141.033798 508.964722,132.079834 
	C508.927216,123.725037 508.889679,115.370232 508.970337,106.082962 
	C508.933411,98.058273 508.896454,90.033577 508.989990,81.434830 
	C510.295624,81.966545 511.601288,82.498268 513.230835,83.622948 
	C520.205200,92.084839 527.179626,100.546722 534.305237,109.654724 
	C535.224731,110.820549 536.156311,111.977074 537.061768,113.153725 
	C542.673035,120.445412 548.278381,127.741608 554.017395,135.730255 
	C559.638428,143.162506 565.259460,150.594772 571.200439,158.628265 
	C577.549927,166.005676 583.687012,173.579971 590.298584,180.714539 
	C600.282715,191.488449 625.468384,190.099136 629.360046,170.868179 
	C630.652832,164.479706 629.743530,157.645615 629.971375,150.083099 
	C629.928894,140.727386 629.886414,131.371689 629.967712,121.082634 
	C629.927612,113.059586 629.887573,105.036545 629.968872,96.080429 
	C629.929321,88.390488 629.889709,80.700554 629.965576,72.077385 
	C629.965576,65.500534 629.965576,58.923679 629.965576,52.349365 
	C620.951233,52.349365 612.723511,52.349365 604.148865,52.349365 
	C604.148865,59.790314 604.148865,66.900429 604.049194,74.933411 
M234.025284,99.034340 
	C233.966507,91.028793 233.907745,83.023254 233.961273,74.141930 
	C234.085220,72.547485 234.209183,70.953041 234.360626,69.004829 
	C236.583374,69.004829 238.393356,68.977989 240.202362,69.008965 
	C259.315155,69.336273 278.427490,69.696320 297.541138,69.963364 
	C299.116058,69.985359 301.355408,69.950256 302.168640,68.992714 
	C306.278229,64.153984 310.017792,59.001003 314.284302,53.440548 
	C312.834259,53.230553 312.073822,53.024261 311.313293,53.024021 
	C261.990479,53.008331 212.667648,53.002300 163.344864,53.049053 
	C162.098877,53.050232 160.359344,53.234989 159.687866,54.036278 
	C155.311569,59.258530 151.167023,64.674995 146.571487,70.503792 
	C168.534637,70.503792 189.538956,70.503792 210.708542,70.503792 
	C210.862869,72.074493 211.007477,73.546135 211.051132,75.947662 
	C211.419128,84.301140 211.787125,92.654610 212.049103,101.938766 
	C212.085327,110.298248 212.121552,118.657722 212.054016,127.944382 
	C212.423874,137.633286 212.793747,147.322174 213.048950,157.940826 
	C213.048950,167.196686 213.048950,176.452545 213.048950,185.694122 
	C221.034698,185.694122 228.287933,185.694122 235.837830,185.694122 
	C235.837830,175.926468 235.837830,166.468750 235.962860,156.125671 
	C235.589523,146.422836 235.216171,136.719986 234.970016,126.084190 
	C234.981125,122.261993 235.112717,118.435387 234.973145,114.618706 
	C234.794342,109.729462 234.397232,104.848213 234.025284,99.034340 
M824.048340,163.938416 
	C824.048340,171.157410 824.048340,178.376389 824.048340,185.635468 
	C832.663818,185.635468 840.661438,185.635468 848.833801,185.635468 
	C848.833801,177.849045 848.833801,170.428925 848.962524,162.078491 
	C848.920410,154.056030 848.878296,146.033569 848.962952,137.080231 
	C848.923462,128.058685 848.883972,119.037140 848.967407,109.083664 
	C848.931763,99.727982 848.896118,90.372307 848.977600,80.082512 
	C848.977600,71.171532 848.977600,62.260551 848.977600,53.344513 
	C840.288025,53.344513 832.387024,53.344513 824.139343,53.344513 
	C824.139343,63.125233 824.139343,72.570908 824.045532,82.947411 
	C824.082153,92.303436 824.118713,101.659454 824.048523,111.945328 
	C824.086914,120.965752 824.125244,129.986176 824.049133,139.937225 
	C824.088562,147.627762 824.127930,155.318298 824.048340,163.938416 
M347.967133,131.157562 
	C347.604431,127.290085 350.391785,128.014938 352.612335,128.013947 
	C378.406830,128.002350 404.210144,127.602386 429.992401,128.164612 
	C444.716217,128.485687 451.291718,117.433403 460.070374,109.005104 
	C458.246094,109.005104 456.421783,109.005074 454.597473,109.005112 
	C420.315765,109.005768 386.033966,108.977203 351.752441,109.057648 
	C348.716949,109.064766 346.414764,108.884026 346.967987,104.083031 
	C346.596161,95.060234 346.224335,86.037430 345.963287,76.147766 
	C345.385864,72.325935 347.514771,71.939041 350.672699,71.949860 
	C378.806641,72.046265 406.942627,71.840668 435.074097,72.121780 
	C442.290375,72.193893 448.661072,71.607498 454.084351,66.083153 
	C458.342926,61.745213 463.332001,58.124420 468.996826,53.340279 
	C421.479095,53.340279 375.498444,53.340279 329.148163,53.340279 
	C329.148163,61.449848 329.148163,69.232246 329.046814,77.945099 
	C329.082458,86.967949 329.118073,95.990807 329.051025,105.943962 
	C329.085632,114.632645 329.120239,123.321327 329.043945,132.940308 
	C329.082031,142.298523 329.120117,151.656754 329.049316,161.944504 
	C329.049316,169.862320 329.049316,177.780136 329.049316,186.006058 
	C331.572449,186.006058 333.385406,186.006027 335.198364,186.006058 
	C363.670074,186.006714 392.141785,186.026550 420.613464,185.996094 
	C428.927765,185.987213 438.181641,188.085388 445.292053,185.116150 
	C452.410889,182.143387 457.398804,174.053268 463.296661,168.182007 
	C464.624725,166.859970 465.853027,165.437759 467.921082,163.204315 
	C426.817352,163.808380 387.079712,164.392380 347.301422,164.976974 
	C347.108795,163.314560 346.975586,162.164719 346.972504,160.085129 
	C347.263580,150.726746 347.554626,141.368347 347.967133,131.157562 
z"/>
<path fill="#C19B5B" opacity="1.000000" stroke="none" 
	d="
M1017.846985,150.021423 
	C1010.378723,172.538574 993.623291,183.362244 971.201538,186.990509 
	C967.635254,187.567596 964.022705,187.858353 960.215759,188.640732 
	C952.645752,189.000000 945.291504,189.000000 937.468628,189.000000 
	C930.681519,187.697586 924.306335,186.620605 918.055542,185.049072 
	C901.531189,180.894638 888.958984,171.738525 882.358765,155.367523 
	C886.469971,154.658707 890.232727,154.392609 893.977661,153.968674 
	C896.014832,153.738068 898.021667,153.239334 900.343018,153.029053 
	C905.941162,160.964767 913.262451,166.047363 922.095581,168.914124 
	C934.808472,173.040131 947.739929,173.829376 961.057800,172.117966 
	C976.984985,170.071243 990.329163,164.275330 999.349243,149.963394 
	C1005.832397,149.992081 1011.839722,150.006744 1017.846985,150.021423 
z"/>
<path fill="#CFB177" opacity="1.000000" stroke="none" 
	d="
M1191.000000,169.533875 
	C1187.957764,178.559067 1182.802124,184.600464 1173.290527,186.446106 
	C1165.585693,187.941132 1158.543945,186.722992 1153.085327,181.383041 
	C1145.762573,174.219406 1139.192139,166.284851 1132.335693,158.648087 
	C1130.907593,157.057602 1129.640869,155.322357 1128.631836,153.266022 
	C1131.410767,152.585480 1133.850342,152.176697 1136.306030,152.022369 
	C1142.900757,151.607925 1149.502319,151.302307 1156.101196,150.953461 
	C1159.082886,154.508087 1162.064453,158.062714 1165.737793,162.441849 
	C1165.882080,159.842682 1165.966797,158.317123 1166.550293,156.397491 
	C1175.032715,155.668930 1183.016357,155.334473 1191.000000,155.000000 
	C1191.000000,159.689255 1191.000000,164.378510 1191.000000,169.533875 
z"/>
<path fill="#D5BB84" opacity="1.000000" stroke="none" 
	d="
M1166.158325,130.011093 
	C1166.122681,120.656311 1166.087158,111.301537 1166.557495,101.475868 
	C1175.042358,101.003319 1183.021118,101.001663 1191.000000,101.000000 
	C1191.000000,110.020897 1191.000000,119.041786 1190.535400,128.531342 
	C1182.099976,129.337036 1174.129150,129.674072 1166.158325,130.011093 
z"/>
<path fill="#DAC28D" opacity="1.000000" stroke="none" 
	d="
M1191.000000,100.531349 
	C1183.021118,101.001663 1175.042358,101.003319 1166.607910,101.010818 
	C1165.783936,92.658218 1165.415527,84.299789 1165.552490,75.472183 
	C1174.371948,75.002014 1182.685913,75.001007 1191.000000,75.000000 
	C1191.000000,83.354233 1191.000000,91.708466 1191.000000,100.531349 
z"/>
<path fill="#D2B67D" opacity="1.000000" stroke="none" 
	d="
M1166.102417,130.476105 
	C1174.129150,129.674072 1182.099976,129.337036 1190.535400,129.000000 
	C1191.000000,137.354233 1191.000000,145.708466 1191.000000,154.531357 
	C1183.016357,155.334473 1175.032715,155.668930 1166.604248,156.007065 
	C1166.121826,147.654205 1166.084229,139.297653 1166.102417,130.476105 
z"/>
<path fill="#DCC793" opacity="1.000000" stroke="none" 
	d="
M1191.000000,74.531364 
	C1182.685913,75.001007 1174.371948,75.002014 1165.602173,75.006699 
	C1165.146484,67.256760 1165.146484,59.503136 1165.146484,51.008053 
	C1173.634277,51.008053 1181.848511,51.008053 1190.531372,51.004028 
	C1191.000000,58.687576 1191.000000,66.375153 1191.000000,74.531364 
z"/>
<path fill="#CFB278" opacity="1.000000" stroke="none" 
	d="
M37.827095,158.008911 
	C32.542889,166.684036 27.332804,175.406311 21.881878,183.975388 
	C21.190508,185.062241 19.259142,185.854004 17.865582,185.912781 
	C12.564164,186.136353 7.247701,186.003128 1.468431,186.001617 
	C1.000000,186.000000 1.000000,185.500000 0.999999,185.250000 
	C6.447616,176.113861 11.895233,167.227737 18.101261,158.164917 
	C25.182142,157.995132 31.504618,158.002029 37.827095,158.008911 
z"/>
<path fill="#EFE5B9" opacity="1.000000" stroke="none" 
	d="
M979.531372,1.000000 
	C982.345337,4.627229 982.136169,7.903036 978.059143,10.585230 
	C967.338074,9.970041 957.219360,9.499227 947.100647,9.028406 
	C948.947266,6.540808 950.793945,4.053215 952.820312,1.282811 
	C961.687561,1.000000 970.375183,1.000000 979.531372,1.000000 
z"/>
<path fill="#CFB177" opacity="1.000000" stroke="none" 
	d="
M346.842346,161.014862 
	C346.975586,162.164719 347.108795,163.314560 347.301422,164.976974 
	C387.079712,164.392380 426.817352,163.808380 467.921082,163.204315 
	C465.853027,165.437759 464.624725,166.859970 463.296661,168.182007 
	C457.398804,174.053268 452.410889,182.143387 445.292053,185.116150 
	C438.181641,188.085388 428.927765,185.987213 420.613464,185.996094 
	C392.141785,186.026550 363.670074,186.006714 335.198364,186.006058 
	C333.385406,186.006027 331.572449,186.006058 329.049316,186.006058 
	C329.049316,177.780136 329.049316,169.862320 329.558838,161.474518 
	C335.659698,161.007980 341.251038,161.011414 346.842346,161.014862 
z"/>
<path fill="#DECA97" opacity="1.000000" stroke="none" 
	d="
M211.152084,75.017769 
	C211.007477,73.546135 210.862869,72.074493 210.708542,70.503792 
	C189.538956,70.503792 168.534637,70.503792 146.571487,70.503792 
	C151.167023,64.674995 155.311569,59.258530 159.687866,54.036278 
	C160.359344,53.234989 162.098877,53.050232 163.344864,53.049053 
	C212.667648,53.002300 261.990479,53.008331 311.313293,53.024021 
	C312.073822,53.024261 312.834259,53.230553 314.284302,53.440548 
	C310.017792,59.001003 306.278229,64.153984 302.168640,68.992714 
	C301.355408,69.950256 299.116058,69.985359 297.541138,69.963364 
	C278.427490,69.696320 259.315155,69.336273 240.202362,69.008965 
	C238.393356,68.977989 236.583374,69.004829 234.360626,69.004829 
	C234.209183,70.953041 234.085220,72.547485 233.450073,74.573959 
	C225.676605,75.009911 218.414337,75.013840 211.152084,75.017769 
z"/>
<path fill="#DEC996" opacity="1.000000" stroke="none" 
	d="
M329.148163,77.014648 
	C329.148163,69.232246 329.148163,61.449848 329.148163,53.340279 
	C375.498444,53.340279 421.479095,53.340279 468.996826,53.340279 
	C463.332001,58.124420 458.342926,61.745213 454.084351,66.083153 
	C448.661072,71.607498 442.290375,72.193893 435.074097,72.121780 
	C406.942627,71.840668 378.806641,72.046265 350.672699,71.949860 
	C347.514771,71.939041 345.385864,72.325935 345.453613,76.576187 
	C339.678650,77.007957 334.413422,77.011307 329.148163,77.014648 
z"/>
<path fill="#D6BD86" opacity="1.000000" stroke="none" 
	d="
M346.846588,105.013596 
	C346.414764,108.884026 348.716949,109.064766 351.752441,109.057648 
	C386.033966,108.977203 420.315765,109.005768 454.597473,109.005112 
	C456.421783,109.005074 458.246094,109.005104 460.070374,109.005104 
	C451.291718,117.433403 444.716217,128.485687 429.992401,128.164612 
	C404.210144,127.602386 378.406830,128.002350 352.612335,128.013947 
	C350.391785,128.014938 347.604431,127.290085 347.451019,131.580292 
	C341.008209,132.005356 335.081543,132.007690 329.154846,132.010010 
	C329.120239,123.321327 329.085632,114.632645 329.556946,105.474106 
	C335.657471,105.007362 341.252014,105.010475 346.846588,105.013596 
z"/>
<path fill="#CFB278" opacity="1.000000" stroke="none" 
	d="
M171.661209,161.705276 
	C176.506149,169.441177 181.351089,177.177094 186.641541,185.624329 
	C142.991714,185.624329 100.324516,185.624329 56.379944,185.624329 
	C59.991188,179.876862 62.994770,174.336273 66.835205,169.453934 
	C67.967148,168.014893 71.463921,168.076721 73.880165,168.063995 
	C93.361160,167.961441 112.843201,168.062210 132.324295,167.969620 
	C138.076065,167.942276 143.825821,167.495239 150.037888,167.220093 
	C149.570465,165.632751 149.305176,164.731857 149.279968,163.147522 
	C156.900436,162.211151 164.280823,161.958206 171.661209,161.705276 
z"/>
<path fill="#E8D9AA" opacity="1.000000" stroke="none" 
	d="
M671.924683,70.971390 
	C684.506226,59.478542 699.214661,53.115376 716.347778,53.041687 
	C743.312256,52.925713 770.277527,53.008484 797.242493,53.007122 
	C798.823364,53.007042 800.404297,53.007107 803.431030,53.007107 
	C795.271729,58.964054 788.614075,64.752167 781.056458,68.900841 
	C777.888367,70.639893 772.813599,68.790207 768.604736,68.770386 
	C755.866150,68.710365 743.109558,68.339432 730.393982,68.883339 
	C721.200623,69.276581 712.061401,70.935089 702.179382,71.738388 
	C691.615417,71.288765 681.770020,71.130074 671.924683,70.971390 
z"/>
<path fill="#C9A86C" opacity="1.000000" stroke="none" 
	d="
M750.045349,169.894958 
	C767.075806,169.405396 784.106201,168.915848 802.040527,168.400314 
	C796.923645,173.107056 791.801514,177.165527 787.486267,181.951553 
	C781.945374,188.096985 775.139526,188.231354 767.728210,188.102661 
	C751.084351,187.813675 734.424683,188.317398 717.785583,187.913879 
	C704.202209,187.584473 691.612915,183.588913 680.618896,174.738647 
	C681.978394,173.860077 683.372742,173.107483 684.793152,173.054565 
	C696.225830,172.628586 707.664185,172.357529 719.099304,171.992813 
	C728.540161,171.691711 737.980103,171.354187 747.416748,170.947586 
	C748.306396,170.909256 749.169800,170.260376 750.045349,169.894958 
z"/>
<path fill="#DCC793" opacity="1.000000" stroke="none" 
	d="
M1045.149292,85.016586 
	C1045.702759,78.478821 1045.741333,71.846840 1046.916992,65.422958 
	C1049.338501,52.191528 1068.398804,45.335426 1079.673462,53.523556 
	C1086.581909,58.540794 1092.074463,65.576416 1097.917969,71.966072 
	C1101.462769,75.842117 1104.464355,80.214966 1107.347656,84.684952 
	C1098.663086,85.336754 1090.338989,85.626610 1082.020996,86.041100 
	C1080.648071,86.109512 1079.302246,86.723938 1077.943970,87.086014 
	C1075.562134,84.561935 1073.180176,82.037872 1070.285767,78.970627 
	C1070.140991,80.886139 1070.050415,82.083817 1069.503174,83.705437 
	C1061.080688,84.425110 1053.114990,84.720848 1045.149292,85.016586 
z"/>
<path fill="#EFE5B9" opacity="1.000000" stroke="none" 
	d="
M888.958801,72.917679 
	C898.108887,60.976791 911.151184,55.773396 925.197815,53.232193 
	C934.400635,51.567287 943.974915,50.766384 953.300415,51.231796 
	C969.634827,52.047012 986.010315,53.769135 999.580566,64.960785 
	C989.681519,66.047653 979.914673,66.487946 970.154053,67.038773 
	C968.417236,67.136787 966.706360,67.693764 964.530762,68.028137 
	C959.806091,67.680412 955.538208,67.129784 951.261230,67.046326 
	C938.406433,66.795464 926.007935,69.163651 913.619629,74.012878 
	C908.400940,74.001671 903.651733,74.130745 898.914246,73.950783 
	C895.587463,73.824409 892.276733,73.277046 888.958801,72.917679 
z"/>
<path fill="#CFB177" opacity="1.000000" stroke="none" 
	d="
M599.108276,156.956589 
	C600.803711,158.457443 602.499084,159.958298 605.051270,162.217590 
	C605.051270,158.563385 605.051270,155.729645 605.560608,152.450241 
	C613.993652,151.674789 621.917297,151.345016 629.841003,151.015244 
	C629.743530,157.645615 630.652832,164.479706 629.360046,170.868179 
	C625.468384,190.099136 600.282715,191.488449 590.298584,180.714539 
	C583.687012,173.579971 577.549927,166.005676 571.473511,158.310516 
	C580.867126,157.647385 589.987732,157.301987 599.108276,156.956589 
z"/>
<path fill="#DCC793" opacity="1.000000" stroke="none" 
	d="
M484.141876,82.008972 
	C484.546997,77.105217 484.386810,72.074203 485.457001,67.320168 
	C489.642700,48.726288 513.375671,46.375931 523.280884,56.948753 
	C530.230530,64.366859 536.446472,72.472443 542.608948,80.639191 
	C538.984253,81.338463 535.747192,81.771942 532.495667,81.979080 
	C525.970276,82.394775 519.436951,82.686874 512.906921,83.029991 
	C511.601288,82.498268 510.295624,81.966545 508.468536,81.718552 
	C500.012024,82.004501 492.076935,82.006737 484.141876,82.008972 
z"/>
<path fill="#DEC996" opacity="1.000000" stroke="none" 
	d="
M62.790100,82.527252 
	C67.443893,73.144936 71.583435,63.269825 80.007118,56.561291 
	C92.569031,46.557121 107.406578,49.642735 115.774544,63.570152 
	C119.504700,69.778511 123.070229,76.085800 126.377777,82.738792 
	C121.350670,83.419701 116.646278,83.604416 111.966331,84.047447 
	C109.814323,84.251167 107.710243,84.961250 105.584435,85.441727 
	C101.958771,79.412300 98.333099,73.382881 94.505531,67.017685 
	C90.782913,72.770447 87.240639,78.244514 82.919350,83.864128 
	C77.658104,84.006653 73.168823,84.149597 68.696854,83.933876 
	C66.709946,83.838028 64.757942,83.018372 62.790100,82.527252 
z"/>
<path fill="#D3B880" opacity="1.000000" stroke="none" 
	d="
M1155.947754,150.650970 
	C1149.502319,151.302307 1142.900757,151.607925 1136.306030,152.022369 
	C1133.850342,152.176697 1131.410767,152.585480 1128.562500,152.942642 
	C1119.859741,141.896805 1111.558594,130.786575 1103.389648,119.068657 
	C1112.630981,117.979836 1121.740112,117.498703 1130.849121,117.017570 
	C1139.164185,128.127869 1147.479370,139.238159 1155.947754,150.650970 
z"/>
<path fill="#D8BF89" opacity="1.000000" stroke="none" 
	d="
M1130.785156,116.688141 
	C1121.740112,117.498703 1112.630981,117.979836 1103.229492,118.770744 
	C1094.712769,108.610916 1086.488403,98.141312 1078.104004,87.378860 
	C1079.302246,86.723938 1080.648071,86.109512 1082.020996,86.041100 
	C1090.338989,85.626610 1098.663086,85.336754 1107.417725,85.011574 
	C1114.489868,94.158974 1121.126831,103.302032 1127.772461,112.438835 
	C1128.734131,113.760948 1129.737183,115.052849 1130.785156,116.688141 
z"/>
<path fill="#D8BF89" opacity="1.000000" stroke="none" 
	d="
M513.068848,83.326469 
	C519.436951,82.686874 525.970276,82.394775 532.495667,81.979080 
	C535.747192,81.771942 538.984253,81.338463 542.658936,80.987320 
	C547.715271,86.948250 552.377808,92.901001 556.947205,98.924355 
	C558.730042,101.274475 560.303467,103.783432 561.722290,106.879982 
	C559.696350,107.693398 557.923218,107.903175 556.144043,107.990479 
	C548.815002,108.350090 541.484192,108.672508 534.153992,109.008606 
	C527.179626,100.546722 520.205200,92.084839 513.068848,83.326469 
z"/>
<path fill="#D5BB84" opacity="1.000000" stroke="none" 
	d="
M534.229614,109.331665 
	C541.484192,108.672508 548.815002,108.350090 556.144043,107.990479 
	C557.923218,107.903175 559.696350,107.693398 561.761963,107.228119 
	C568.367859,115.698242 574.684021,124.480179 580.578491,133.624359 
	C571.399719,134.336502 562.642639,134.686417 553.885620,135.036316 
	C548.278381,127.741608 542.673035,120.445412 537.061768,113.153725 
	C536.156311,111.977074 535.224731,110.820549 534.229614,109.331665 
z"/>
<path fill="#CFB177" opacity="1.000000" stroke="none" 
	d="
M1069.836548,156.010971 
	C1069.836548,165.760361 1069.836548,175.509766 1069.836548,185.633911 
	C1061.666382,185.633911 1053.662109,185.633911 1045.048950,185.633911 
	C1045.048950,176.370148 1045.048950,167.155319 1045.558472,157.472015 
	C1053.990845,156.672699 1061.913696,156.341827 1069.836548,156.010971 
z"/>
<path fill="#D3B880" opacity="1.000000" stroke="none" 
	d="
M629.906189,150.549164 
	C621.917297,151.345016 613.993652,151.674789 605.614136,152.009781 
	C605.121460,142.657166 605.084656,133.299316 605.557373,123.472458 
	C613.992615,122.674286 621.918274,122.345131 629.843933,122.015976 
	C629.886414,131.371689 629.928894,140.727386 629.906189,150.549164 
z"/>
<path fill="#D8BF89" opacity="1.000000" stroke="none" 
	d="
M824.155273,111.015488 
	C824.118713,101.659454 824.082153,92.303436 824.514771,82.475510 
	C832.942871,81.674614 840.901611,81.345619 848.860413,81.016624 
	C848.896118,90.372307 848.931763,99.727982 848.450378,109.544273 
	C840.007324,110.341751 832.081299,110.678619 824.155273,111.015488 
z"/>
<path fill="#DCC793" opacity="1.000000" stroke="none" 
	d="
M848.919006,80.549568 
	C840.901611,81.345619 832.942871,81.674614 824.561707,82.010094 
	C824.139343,72.570908 824.139343,63.125233 824.139343,53.344513 
	C832.387024,53.344513 840.288025,53.344513 848.977600,53.344513 
	C848.977600,62.260551 848.977600,71.171532 848.919006,80.549568 
z"/>
<path fill="#D3B880" opacity="1.000000" stroke="none" 
	d="
M824.101929,111.480408 
	C832.081299,110.678619 840.007324,110.341751 848.388916,110.010239 
	C848.883972,119.037140 848.923462,128.058685 848.444092,137.542114 
	C840.004761,138.338196 832.084167,138.672394 824.163574,139.006592 
	C824.125244,129.986176 824.086914,120.965752 824.101929,111.480408 
z"/>
<path fill="#CFB177" opacity="1.000000" stroke="none" 
	d="
M508.838928,158.010803 
	C508.838928,167.094391 508.838928,176.177979 508.838928,185.635040 
	C500.666016,185.635040 492.663635,185.635040 484.047852,185.635040 
	C484.047852,177.039276 484.047852,168.489838 484.557251,159.471939 
	C492.990753,158.672577 500.914856,158.341690 508.838928,158.010803 
z"/>
<path fill="#D3B880" opacity="1.000000" stroke="none" 
	d="
M213.163620,157.011078 
	C212.793747,147.322174 212.423874,137.633286 212.561234,127.474960 
	C220.326584,127.009407 227.584702,127.013275 234.842834,127.017151 
	C235.216171,136.719986 235.589523,146.422836 235.444839,156.564728 
	C227.672424,157.006226 220.418015,157.008652 213.163620,157.011078 
z"/>
<path fill="#D2B67D" opacity="1.000000" stroke="none" 
	d="
M553.951538,135.383301 
	C562.642639,134.686417 571.399719,134.336502 580.634094,133.974396 
	C585.386414,139.238449 589.671814,144.506271 593.931213,149.795029 
	C595.648987,151.927917 597.309937,154.106644 599.052490,156.610550 
	C589.987732,157.301987 580.867126,157.647385 571.313477,158.009903 
	C565.259460,150.594772 559.638428,143.162506 553.951538,135.383301 
z"/>
<path fill="#CFB278" opacity="1.000000" stroke="none" 
	d="
M213.106293,157.475952 
	C220.418015,157.008652 227.672424,157.006226 235.382324,157.007416 
	C235.837830,166.468750 235.837830,175.926468 235.837830,185.694122 
	C228.287933,185.694122 221.034698,185.694122 213.048950,185.694122 
	C213.048950,176.452545 213.048950,167.196686 213.106293,157.475952 
z"/>
<path fill="#D6BD86" opacity="1.000000" stroke="none" 
	d="
M629.905823,121.549301 
	C621.918274,122.345131 613.992615,122.674286 605.611328,123.007408 
	C605.120667,114.655556 605.085693,106.299736 605.557495,97.474060 
	C613.992065,97.007301 621.919800,97.010399 629.847534,97.013489 
	C629.887573,105.036545 629.927612,113.059586 629.905823,121.549301 
z"/>
<path fill="#DAC28D" opacity="1.000000" stroke="none" 
	d="
M484.090576,82.474609 
	C492.076935,82.006737 500.012024,82.004501 508.403290,82.005577 
	C508.896454,90.033577 508.933411,98.058273 508.500732,106.555481 
	C500.069885,107.357002 492.108643,107.686005 484.147400,108.014999 
	C484.111359,99.656754 484.075317,91.298500 484.090576,82.474609 
z"/>
<path fill="#D5BB84" opacity="1.000000" stroke="none" 
	d="
M484.095917,108.480125 
	C492.108643,107.686005 500.069885,107.357002 508.441650,107.021721 
	C508.889679,115.370232 508.927216,123.725037 508.466217,132.541779 
	C500.031281,133.339523 492.094818,133.675323 484.158386,134.011139 
	C484.120392,125.655830 484.082397,117.300545 484.095917,108.480125 
z"/>
<path fill="#D2B67D" opacity="1.000000" stroke="none" 
	d="
M1069.901123,155.545197 
	C1061.913696,156.341827 1053.990845,156.672699 1045.615234,157.007263 
	C1045.125732,148.654800 1045.088867,140.298676 1045.562012,131.473419 
	C1053.994385,131.007111 1061.916504,131.009933 1069.838867,131.012756 
	C1069.881104,139.034973 1069.923462,147.057190 1069.901123,155.545197 
z"/>
<path fill="#DAC28D" opacity="1.000000" stroke="none" 
	d="
M105.709213,85.764633 
	C107.710243,84.961250 109.814323,84.251167 111.966331,84.047447 
	C116.646278,83.604416 121.350670,83.419701 126.446701,83.075439 
	C131.895813,91.765083 136.943314,100.508690 141.620331,109.668533 
	C137.849960,110.389946 134.448380,110.677902 131.050613,111.005157 
	C127.667007,111.331055 124.287201,111.696373 120.905731,112.044403 
	C117.322777,106.164101 113.684814,100.316307 110.181679,94.388840 
	C108.594505,91.703262 107.274956,88.859520 105.709213,85.764633 
z"/>
<path fill="#CFB278" opacity="1.000000" stroke="none" 
	d="
M824.106384,139.471909 
	C832.084167,138.672394 840.004761,138.338196 848.380737,138.007553 
	C848.878296,146.033569 848.920410,154.056030 848.442566,162.540863 
	C840.004150,163.005112 832.085754,163.006973 824.167297,163.008835 
	C824.127930,155.318298 824.088562,147.627762 824.106384,139.471909 
z"/>
<path fill="#D2B67D" opacity="1.000000" stroke="none" 
	d="
M484.102478,134.476135 
	C492.094818,133.675323 500.031281,133.339523 508.404663,133.007446 
	C508.883606,141.033798 508.925629,149.056427 508.903320,157.544922 
	C500.914856,158.341690 492.990753,158.672577 484.613800,159.007141 
	C484.122772,150.987579 484.084656,142.964355 484.102478,134.476135 
z"/>
<path fill="#D3B880" opacity="1.000000" stroke="none" 
	d="
M171.631470,161.328705 
	C164.280823,161.958206 156.900436,162.211151 149.228729,162.775055 
	C144.297592,154.635513 139.657791,146.184982 135.378464,137.324570 
	C142.702469,136.520111 149.665985,136.125534 156.629517,135.730957 
	C161.620255,144.138016 166.610992,152.545059 171.631470,161.328705 
z"/>
<path fill="#D8BF89" opacity="1.000000" stroke="none" 
	d="
M234.906433,126.550674 
	C227.584702,127.013275 220.326584,127.009407 212.613098,127.011368 
	C212.121552,118.657722 212.085327,110.298248 212.523239,101.470535 
	C220.029648,100.656036 227.061905,100.309776 234.094177,99.963516 
	C234.397232,104.848213 234.794342,109.729462 234.973145,114.618706 
	C235.112717,118.435387 234.981125,122.261993 234.906433,126.550674 
z"/>
<path fill="#DAC28D" opacity="1.000000" stroke="none" 
	d="
M629.908203,96.546959 
	C621.919800,97.010399 613.992065,97.007301 605.608887,97.008904 
	C604.785339,89.653534 604.417297,82.293472 604.546448,74.468353 
	C613.312500,73.672394 621.581360,73.341499 629.850159,73.010612 
	C629.889709,80.700554 629.929321,88.390488 629.908203,96.546959 
z"/>
<path fill="#D8BF89" opacity="1.000000" stroke="none" 
	d="
M1045.098755,85.481644 
	C1053.114990,84.720848 1061.080688,84.425110 1069.448242,84.075714 
	C1069.886963,92.040268 1069.923828,100.058487 1069.446533,108.539749 
	C1061.007568,109.004623 1053.082886,109.006462 1045.158081,109.008301 
	C1045.121460,101.321098 1045.084839,93.633904 1045.098755,85.481644 
z"/>
<path fill="#D6BD86" opacity="1.000000" stroke="none" 
	d="
M156.591949,135.354401 
	C149.665985,136.125534 142.702469,136.520111 135.313843,136.970444 
	C130.269287,128.936752 125.649818,120.847282 120.968040,112.401108 
	C124.287201,111.696373 127.667007,111.331055 131.050613,111.005157 
	C134.448380,110.677902 137.849960,110.389946 141.673523,110.025497 
	C146.916245,118.303436 151.735306,126.640648 156.591949,135.354401 
z"/>
<path fill="#CCAD72" opacity="1.000000" stroke="none" 
	d="
M749.772095,169.567963 
	C749.169800,170.260376 748.306396,170.909256 747.416748,170.947586 
	C737.980103,171.354187 728.540161,171.691711 719.099304,171.992813 
	C707.664185,172.357529 696.225830,172.628586 684.793152,173.054565 
	C683.372742,173.107483 681.978394,173.860077 680.319946,174.564667 
	C675.048828,169.801376 670.029602,164.761902 665.406189,159.365936 
	C672.570312,158.322769 679.338684,157.636093 686.107056,156.949402 
	C693.312256,163.069702 701.364868,166.774292 711.066040,167.083099 
	C723.886902,167.491226 736.688843,168.493881 749.772095,169.567963 
z"/>
<path fill="#DAC28D" opacity="1.000000" stroke="none" 
	d="
M234.059723,99.498932 
	C227.061905,100.309776 220.029648,100.656036 212.576248,101.005188 
	C211.787125,92.654610 211.419128,84.301140 211.101608,75.482712 
	C218.414337,75.013840 225.676605,75.009911 233.393921,75.011848 
	C233.907745,83.023254 233.966507,91.028793 234.059723,99.498932 
z"/>
<path fill="#CCAD72" opacity="1.000000" stroke="none" 
	d="
M824.107788,163.473633 
	C832.085754,163.006973 840.004150,163.005112 848.378174,163.006027 
	C848.833801,170.428925 848.833801,177.849045 848.833801,185.635468 
	C840.661438,185.635468 832.663818,185.635468 824.048340,185.635468 
	C824.048340,178.376389 824.048340,171.157410 824.107788,163.473633 
z"/>
<path fill="#DAC28D" opacity="1.000000" stroke="none" 
	d="
M62.534256,82.777168 
	C64.757942,83.018372 66.709946,83.838028 68.696854,83.933876 
	C73.168823,84.149597 77.658104,84.006653 82.617203,84.019066 
	C77.961861,92.595490 72.829643,101.162514 67.006195,109.718140 
	C61.547619,109.639366 56.779003,109.616440 52.013603,109.480782 
	C50.320763,109.432594 48.635727,109.110336 46.947128,108.913193 
	C52.057556,100.284492 57.167984,91.655785 62.534256,82.777168 
z"/>
<path fill="#DCC793" opacity="1.000000" stroke="none" 
	d="
M629.907837,72.543999 
	C621.581360,73.341499 613.312500,73.672394 604.596313,74.006912 
	C604.148865,66.900429 604.148865,59.790314 604.148865,52.349365 
	C612.723511,52.349365 620.951233,52.349365 629.965576,52.349365 
	C629.965576,58.923679 629.965576,65.500534 629.907837,72.543999 
z"/>
<path fill="#D5BB84" opacity="1.000000" stroke="none" 
	d="
M1045.102173,109.473480 
	C1053.082886,109.006462 1061.007568,109.004623 1069.387695,109.005524 
	C1069.884155,116.032372 1069.925293,123.056480 1069.902588,130.546661 
	C1061.916504,131.009933 1053.994385,131.007111 1045.616821,131.008560 
	C1045.123047,123.988106 1045.084595,116.963379 1045.102173,109.473480 
z"/>
<path fill="#D3B880" opacity="1.000000" stroke="none" 
	d="
M329.099396,132.475159 
	C335.081543,132.007690 341.008209,132.005356 347.390289,132.006500 
	C347.554626,141.368347 347.263580,150.726746 346.907410,160.549988 
	C341.251038,161.011414 335.659698,161.007980 329.613281,161.009750 
	C329.120117,151.656754 329.082031,142.298523 329.099396,132.475159 
z"/>
<path fill="#D8BF89" opacity="1.000000" stroke="none" 
	d="
M46.666424,109.110077 
	C48.635727,109.110336 50.320763,109.432594 52.013603,109.480782 
	C56.779003,109.616440 61.547619,109.639366 66.705170,109.877602 
	C62.456207,117.831177 57.817047,125.613869 52.557259,133.700867 
	C45.593769,133.653564 39.250912,133.301956 32.908051,132.950348 
	C37.400608,125.069229 41.893166,117.188095 46.666424,109.110077 
z"/>
<path fill="#D3B880" opacity="1.000000" stroke="none" 
	d="
M32.609032,133.114777 
	C39.250912,133.301956 45.593769,133.653564 52.391865,134.010986 
	C47.956490,141.811447 43.065884,149.606094 38.001183,157.704819 
	C31.504618,158.002029 25.182142,157.995132 18.383816,157.975555 
	C22.708645,149.734985 27.509327,141.507095 32.609032,133.114777 
z"/>
<path fill="#DAC28D" opacity="1.000000" stroke="none" 
	d="
M346.907288,104.548309 
	C341.252014,105.010475 335.657471,105.007362 329.608276,105.008957 
	C329.118073,95.990807 329.082458,86.967949 329.097473,77.479874 
	C334.413422,77.011307 339.678650,77.007957 345.398193,77.009621 
	C346.224335,86.037430 346.596161,95.060234 346.907288,104.548309 
z"/>
<path fill="#E3D1A0" opacity="1.000000" stroke="none" 
	d="
M671.630981,71.127731 
	C681.770020,71.130074 691.615417,71.288765 701.753418,71.755905 
	C692.617004,76.210541 683.742126,81.054527 677.887634,90.829376 
	C670.804260,91.014153 664.474426,91.020340 658.144531,91.026520 
	C662.542114,84.445709 666.939636,77.864899 671.630981,71.127731 
z"/>
<path fill="#DCC793" opacity="1.000000" stroke="none" 
	d="
M657.967041,91.355812 
	C664.474426,91.020340 670.804260,91.014153 677.610718,91.015488 
	C675.400513,98.758041 672.713806,106.493088 669.482666,114.617790 
	C663.677490,115.012566 658.416626,115.017693 653.155823,115.022812 
	C652.203003,106.747711 654.896118,99.196518 657.967041,91.355812 
z"/>
<path fill="#D6BD86" opacity="1.000000" stroke="none" 
	d="
M653.105347,115.486618 
	C658.416626,115.017693 663.677490,115.012566 669.392334,115.015007 
	C670.908264,122.401093 671.970154,129.779617 672.646484,137.619385 
	C666.557312,138.392227 660.853638,138.703812 655.149963,139.015396 
	C654.451599,131.327072 653.753235,123.638741 653.105347,115.486618 
z"/>
<path fill="#D2B67D" opacity="1.000000" stroke="none" 
	d="
M655.238525,139.369141 
	C660.853638,138.703812 666.557312,138.392227 672.685059,138.020721 
	C677.340820,144.089874 681.572510,150.218948 685.955688,156.648712 
	C679.338684,157.636093 672.570312,158.322769 665.337280,159.018585 
	C661.690796,152.592743 658.508972,146.157806 655.238525,139.369141 
z"/>
<path fill="#C9A86C" opacity="1.000000" stroke="none" 
	d="
M1017.936157,149.636963 
	C1011.839722,150.006744 1005.832397,149.992081 999.403320,149.596771 
	C1000.705078,143.815475 1002.428650,138.414825 1004.610413,133.008713 
	C1010.425842,133.010757 1015.783142,133.018250 1021.140381,133.025757 
	C1020.101990,138.434662 1019.063660,143.843567 1017.936157,149.636963 
z"/>
<path fill="#E8D9AA" opacity="1.000000" stroke="none" 
	d="
M964.983459,68.038803 
	C966.706360,67.693764 968.417236,67.136787 970.154053,67.038773 
	C979.914673,66.487946 989.681519,66.047653 999.733337,65.265610 
	C1003.268494,68.096397 1006.516541,71.231224 1009.476929,74.691467 
	C1006.138672,75.345772 1003.091431,75.711281 1000.036560,75.994461 
	C996.013794,76.367371 991.985046,76.675568 987.606323,76.976494 
	C979.830383,73.973869 972.406921,71.006332 964.983459,68.038803 
z"/>
<path fill="#E8D9AA" opacity="1.000000" stroke="none" 
	d="
M946.934937,9.326980 
	C957.219360,9.499227 967.338074,9.970041 977.750916,10.745390 
	C975.733337,13.361478 973.421631,15.673032 970.278442,18.017590 
	C960.338440,17.706440 951.229919,17.362288 942.121460,17.018135 
	C943.670715,14.553939 945.220032,12.089744 946.934937,9.326980 
z"/>
<path fill="#C9A86C" opacity="1.000000" stroke="none" 
	d="
M900.042175,152.861542 
	C898.021667,153.239334 896.014832,153.738068 893.977661,153.968674 
	C890.232727,154.392609 886.469971,154.658707 882.280029,155.009155 
	C880.337463,150.600540 878.829468,146.173340 877.651123,141.372070 
	C883.605164,140.668045 889.229492,140.338104 894.928589,140.378601 
	C896.682922,144.786530 898.362549,148.824036 900.042175,152.861542 
z"/>
<path fill="#CFB177" opacity="1.000000" stroke="none" 
	d="
M1021.460510,132.752136 
	C1015.783142,133.018250 1010.425842,133.010757 1004.572632,132.589447 
	C1004.437195,127.457146 1004.797791,122.738670 1005.615845,118.013519 
	C1011.330200,118.011940 1016.587036,118.017014 1021.843933,118.022095 
	C1021.822815,122.840904 1021.801697,127.659721 1021.460510,132.752136 
z"/>
<path fill="#E3D1A0" opacity="1.000000" stroke="none" 
	d="
M941.951660,17.316879 
	C951.229919,17.362288 960.338440,17.706440 969.964111,18.084953 
	C968.207153,21.004107 965.932922,23.888899 963.069031,26.617023 
	C954.029968,25.981634 945.580627,25.502911 937.131287,25.024185 
	C938.681519,22.554665 940.231689,20.085144 941.951660,17.316879 
z"/>
<path fill="#CCAD72" opacity="1.000000" stroke="none" 
	d="
M894.853821,140.008163 
	C889.229492,140.338104 883.605164,140.668045 877.563538,141.003464 
	C876.780945,136.973114 876.415588,132.937302 876.548950,128.453400 
	C882.311890,127.675301 887.576172,127.345268 892.895996,127.448570 
	C893.585510,131.923996 894.219666,135.966080 894.853821,140.008163 
z"/>
<path fill="#E3D1A0" opacity="1.000000" stroke="none" 
	d="
M987.958862,77.011589 
	C991.985046,76.675568 996.013794,76.367371 1000.036560,75.994461 
	C1003.091431,75.711281 1006.138672,75.345772 1009.616455,75.001022 
	C1011.926880,78.106247 1013.809998,81.227341 1015.333984,84.678131 
	C1008.961975,85.342560 1002.949219,85.677292 996.640015,85.870987 
	C993.548706,82.823830 990.753784,79.917709 987.958862,77.011589 
z"/>
<path fill="#E3D1A0" opacity="1.000000" stroke="none" 
	d="
M878.910645,93.965378 
	C880.351440,90.015053 881.792175,86.064743 883.768250,82.220367 
	C890.561890,82.555679 896.820251,82.785065 902.920410,83.324585 
	C900.796570,87.096497 898.830933,90.558281 896.405884,94.013184 
	C890.267822,93.992668 884.589294,93.979027 878.910645,93.965378 
z"/>
<path fill="#DCC793" opacity="1.000000" stroke="none" 
	d="
M878.625366,94.217064 
	C884.589294,93.979027 890.267822,93.992668 896.302246,94.366058 
	C895.474854,98.489044 894.291748,102.252281 892.634338,106.010841 
	C886.823547,106.011490 881.487061,106.016830 876.150574,106.022171 
	C876.880432,102.171028 877.610229,98.319885 878.625366,94.217064 
z"/>
<path fill="#D5BB84" opacity="1.000000" stroke="none" 
	d="
M1021.909302,117.568161 
	C1016.587036,118.017014 1011.330200,118.011940 1005.550476,117.567429 
	C1004.736755,113.423676 1004.445862,109.719345 1004.602051,106.010277 
	C1010.313538,105.676125 1015.578064,105.346710 1020.842529,105.017296 
	C1021.219910,109.049606 1021.597290,113.081917 1021.909302,117.568161 
z"/>
<path fill="#E8D9AA" opacity="1.000000" stroke="none" 
	d="
M903.078613,83.014465 
	C896.820251,82.785065 890.561890,82.555679 884.014099,81.958679 
	C885.273315,78.816872 886.822021,76.042671 888.664795,73.093079 
	C892.276733,73.277046 895.587463,73.824409 898.914246,73.950783 
	C903.651733,74.130745 908.400940,74.001671 913.445312,74.307846 
	C910.189819,77.412216 906.634216,80.213356 903.078613,83.014465 
z"/>
<path fill="#D2B67D" opacity="1.000000" stroke="none" 
	d="
M892.840515,127.015228 
	C887.576172,127.345268 882.311890,127.675301 876.603577,128.011230 
	C875.869141,124.175522 875.578735,120.333931 876.070557,116.239525 
	C881.937134,115.997398 887.021362,116.008087 892.060181,116.456985 
	C892.290039,120.268539 892.565308,123.641884 892.840515,127.015228 
z"/>
<path fill="#DAC28D" opacity="1.000000" stroke="none" 
	d="
M1020.902954,104.600327 
	C1015.578064,105.346710 1010.313538,105.676125 1004.537476,105.615021 
	C1003.320862,102.154655 1002.615906,99.084801 1002.302368,95.854904 
	C1008.155579,95.451836 1013.617310,95.208824 1019.079102,94.965820 
	C1019.707275,98.038322 1020.335327,101.110832 1020.902954,104.600327 
z"/>
<path fill="#DECA97" opacity="1.000000" stroke="none" 
	d="
M1019.047852,94.581024 
	C1013.617310,95.208824 1008.155579,95.451836 1002.021606,95.663483 
	C999.878418,92.425423 998.407410,89.218735 996.936401,86.012039 
	C1002.949219,85.677292 1008.961975,85.342560 1015.410156,85.014214 
	C1016.902527,88.079140 1017.959534,91.137688 1019.047852,94.581024 
z"/>
<path fill="#DCC793" opacity="1.000000" stroke="none" 
	d="
M936.953918,25.352516 
	C945.580627,25.502911 954.029968,25.981634 962.771729,26.771835 
	C960.154846,31.602110 956.286194,33.868549 950.673096,33.085838 
	C947.603638,32.657822 944.425537,33.014763 941.296387,33.008865 
	C934.354919,32.995777 933.643311,31.839638 936.953918,25.352516 
z"/>
<path fill="#D6BD86" opacity="1.000000" stroke="none" 
	d="
M892.105652,116.018784 
	C887.021362,116.008087 881.937134,115.997398 876.377441,115.972931 
	C875.951599,112.946396 876.001099,109.933617 876.100586,106.471512 
	C881.487061,106.016830 886.823547,106.011490 892.586731,106.453934 
	C892.710876,109.940735 892.408264,112.979759 892.105652,116.018784 
z"/>
<path fill="#FFFFFF" opacity="1.000000" stroke="none" 
	d="
M892.060181,116.456993 
	C892.408264,112.979759 892.710876,109.940735 893.061035,106.458618 
	C894.291748,102.252281 895.474854,98.489044 896.761719,94.372932 
	C898.830933,90.558281 900.796570,87.096497 902.920410,83.324600 
	C906.634216,80.213356 910.189819,77.412216 913.919800,74.316101 
	C926.007935,69.163651 938.406433,66.795464 951.261230,67.046326 
	C955.538208,67.129784 959.806091,67.680412 964.530762,68.028130 
	C972.406921,71.006332 979.830383,73.973869 987.606323,76.976501 
	C990.753784,79.917709 993.548706,82.823830 996.640015,85.870995 
	C998.407410,89.218735 999.878418,92.425423 1001.630188,95.823532 
	C1002.615906,99.084801 1003.320862,102.154655 1004.090454,105.619766 
	C1004.445862,109.719345 1004.736755,113.423676 1005.093018,117.574097 
	C1004.797791,122.738670 1004.437195,127.457146 1004.114441,132.594894 
	C1002.428650,138.414825 1000.705078,143.815475 998.927368,149.582748 
	C990.329163,164.275330 976.984985,170.071243 961.057800,172.117966 
	C947.739929,173.829376 934.808472,173.040131 922.095581,168.914124 
	C913.262451,166.047363 905.941162,160.964767 900.343018,153.029053 
	C898.362549,148.824036 896.682922,144.786530 894.928589,140.378601 
	C894.219666,135.966080 893.585510,131.923996 892.895996,127.448563 
	C892.565308,123.641884 892.290039,120.268539 892.060181,116.456993 
z"/>
</svg>