<svg version="1.1" id="Layer_1" xmlns="http://www.w3.org/2000/svg" xmlns:xlink="http://www.w3.org/1999/xlink" x="0px" y="0px"
	 width="100%" viewBox="0 0 872 806" enable-background="new 0 0 872 806" xml:space="preserve">
<path fill="#FFFFFF" opacity="1.000000" stroke="none" 
	d="
M437.000000,807.000000 
	C291.730591,807.000000 146.461182,807.000000 1.000000,807.000000 
	C1.000000,626.643372 1.000000,446.286713 1.316737,265.590698 
	C6.872763,272.395081 12.037803,279.594757 17.372044,286.666840 
	C22.796478,293.858521 28.387659,300.924408 33.966740,308.391296 
	C37.723427,313.931061 41.311691,319.205627 45.140606,324.299316 
	C50.639793,331.615051 56.314320,338.798920 61.974678,346.385437 
	C70.219620,357.849304 78.380836,368.983887 86.594955,380.079346 
	C94.016243,390.103882 101.495346,400.085571 109.100861,410.390259 
	C120.891472,426.464569 132.530182,442.234802 144.234406,458.331482 
	C150.886383,467.489655 157.445526,476.342010 164.093170,485.127441 
	C164.939880,486.246429 166.148819,487.648193 167.360474,487.839691 
	C173.201996,488.762878 179.104279,489.296875 184.980621,490.005432 
	C193.793243,491.068054 202.609558,492.104950 211.410919,493.255127 
	C223.131226,494.786713 234.839386,496.411407 246.551437,498.005829 
	C255.497910,499.223724 264.438446,500.485809 273.388733,501.674652 
	C282.020721,502.821198 290.661469,503.901611 299.298981,505.006470 
	C308.099579,506.132202 316.906494,507.210114 325.700409,508.385590 
	C336.927795,509.886322 348.143066,511.477020 359.366882,513.004700 
	C371.078613,514.598755 382.787170,516.219543 394.510376,517.725403 
	C405.535706,519.141602 416.578400,520.422913 427.773254,521.782959 
	C427.676544,521.075317 427.779419,520.470398 427.524261,520.158020 
	C419.708588,510.590332 411.837250,501.068146 404.017975,491.503357 
	C395.579620,481.181305 387.239838,470.778198 378.751312,460.497742 
	C373.303833,453.900238 367.665344,447.460388 362.059814,440.603271 
	C358.440125,435.765106 354.941925,431.216766 351.292847,426.792847 
	C341.349274,414.737793 331.295563,402.773499 321.373322,390.701019 
	C311.890503,379.163208 302.518311,367.534485 292.943054,355.644531 
	C285.824524,346.793579 279.104919,338.026398 271.783844,329.794128 
	C268.567322,326.177277 266.956207,321.022461 260.844543,319.826202 
	C242.978027,316.329315 225.256836,312.096100 207.451447,308.278564 
	C197.023483,306.042725 186.543503,304.049530 175.841843,301.646362 
	C161.632568,298.256409 147.683792,295.095459 133.701065,292.092499 
	C100.260727,284.910706 66.808250,277.785248 33.352318,270.676361 
	C22.581635,268.387756 11.784846,266.221985 0.999998,264.000000 
	C1.000000,176.387222 1.000000,88.774437 1.000000,1.000000 
	C146.356613,1.000000 291.713287,1.000000 437.404602,1.335158 
	C436.312286,4.839297 434.843628,7.990226 433.464966,11.180063 
	C420.666321,40.792236 407.883209,70.411125 394.930481,100.347137 
	C384.880035,123.450966 374.994690,146.235718 364.941589,169.340240 
	C357.891663,185.447266 351.009460,201.234512 343.961182,217.346329 
	C340.698578,224.780746 337.580902,231.881485 334.509827,239.002319 
	C328.040192,254.003281 321.595001,269.014801 314.973236,284.343292 
	C313.240753,288.099243 311.294708,291.424133 310.258453,295.011810 
	C309.682739,297.004974 309.985352,299.787781 310.987640,301.613129 
	C317.152069,312.839722 323.533691,323.950928 330.045807,334.980865 
	C332.916534,339.843140 336.263489,344.424286 339.421204,349.525269 
	C339.979736,351.299683 340.338806,352.781342 341.069611,354.048676 
	C348.120361,366.275848 355.171570,378.503662 362.353210,390.654083 
	C366.422516,397.538788 370.735077,404.279694 374.985504,411.440094 
	C378.685608,418.182892 382.280487,424.604858 386.003296,430.951782 
	C393.278168,443.354462 400.624481,455.715271 407.987427,468.445251 
	C417.980347,485.883850 427.927124,502.970551 438.491760,521.118591 
	C449.828125,501.963501 460.442047,484.029144 471.348145,465.906128 
	C476.779968,456.956329 481.925659,448.198730 487.057709,439.433167 
	C494.747223,426.299469 502.427124,413.160156 510.394287,399.840149 
	C511.616028,398.114227 512.567078,396.578827 513.491394,395.027435 
	C525.607422,374.690643 537.719604,354.351593 550.006226,333.701904 
	C556.043335,323.511108 561.941345,313.651550 567.724670,303.725220 
	C568.405029,302.557434 569.125549,300.738068 568.687317,299.703857 
	C566.007568,293.379639 562.998718,287.194855 560.068359,280.583862 
	C558.571533,276.541626 557.184631,272.845184 555.626709,269.222321 
	C548.393677,252.402557 541.186523,235.570953 533.821106,218.809097 
	C529.715393,209.465530 525.318115,200.250076 521.030579,190.598969 
	C518.663818,184.613342 516.426208,178.957687 513.949463,173.408752 
	C509.796539,164.104446 505.491241,154.868164 501.182648,145.249390 
	C495.715027,132.270828 490.314819,119.646126 484.918701,106.655991 
	C479.323364,93.544151 473.692383,80.811508 468.131531,68.048302 
	C458.398285,45.708759 448.708160,23.350449 439.000000,1.000003 
	C583.577332,1.000000 728.154724,1.000000 873.000000,1.000000 
	C873.000000,88.356476 873.000000,175.713226 872.582764,263.542908 
	C862.834961,266.007385 853.503540,267.994263 844.174194,269.991364 
	C818.431885,275.502045 792.680054,280.968628 766.952026,286.544983 
	C745.083923,291.284698 723.261597,296.236084 701.386780,300.944031 
	C671.477051,307.381409 641.533386,313.661438 611.621887,320.090515 
	C610.442322,320.343994 609.181763,321.224335 608.401978,322.175690 
	C601.927368,330.074280 595.557068,338.058472 588.990723,346.315826 
	C585.921082,349.976135 582.941101,353.276031 580.123840,356.709412 
	C568.680847,370.654816 557.251770,384.612152 545.896240,398.628784 
	C542.105286,403.308167 538.549377,408.177917 534.591675,413.114838 
	C533.361023,414.207825 532.337463,415.075287 531.501587,416.096375 
	C522.771729,426.761017 514.023010,437.410919 505.382111,448.147491 
	C500.144684,454.655090 495.087006,461.307373 489.648499,468.054138 
	C488.407440,469.155884 487.377014,470.025208 486.539093,471.051605 
	C476.437103,483.426666 466.349243,495.813324 456.290344,508.223450 
	C452.816010,512.509949 449.432281,516.869812 445.963501,521.251282 
	C446.606934,521.604492 446.900665,521.913696 447.151978,521.882385 
	C457.414429,520.604187 467.673553,519.299133 477.932037,517.989136 
	C485.922180,516.968811 493.915833,515.973816 501.899292,514.903381 
	C516.386475,512.960938 530.861633,510.928558 545.352478,509.014313 
	C556.273743,507.571625 567.222839,506.337952 578.138916,504.858856 
	C589.362915,503.338013 600.545410,501.506989 611.775818,500.039307 
	C625.797607,498.206818 639.860413,496.689545 653.885864,494.883484 
	C668.383484,493.016663 682.916260,491.303772 697.306519,488.794434 
	C701.695129,488.029175 707.084534,489.893280 710.528992,484.955597 
	C716.163574,476.878265 722.055420,468.980347 728.007568,460.704102 
	C728.974915,459.559814 729.873474,458.791992 730.556641,457.865387 
	C738.913757,446.530334 747.292419,435.210480 755.555054,423.806732 
	C761.492798,415.611694 767.264648,407.296448 773.412476,398.885315 
	C774.186646,398.271881 774.733887,397.863007 775.120361,397.336243 
	C790.235901,376.734100 805.336853,356.121246 820.650757,335.241150 
	C821.898804,333.690216 822.983643,332.443451 823.965576,331.120331 
	C840.317993,309.085876 856.657593,287.041901 873.000000,265.000000 
	C873.000000,445.587036 873.000000,626.174072 873.000000,807.000000 
	C728.643433,807.000000 584.286743,807.000000 439.483643,806.632568 
	C451.900024,779.779053 464.721252,753.272583 477.637634,726.812622 
	C489.985107,701.518127 502.431610,676.271973 514.996826,650.695679 
	C514.671753,648.698425 514.571045,646.751648 513.640503,645.359680 
	C492.478851,613.707092 471.227173,582.114685 449.990570,550.512207 
	C446.034485,544.625061 442.070801,538.743042 437.693024,532.238098 
	C430.827301,542.817322 424.550873,552.618347 418.145233,562.334229 
	C399.899109,590.009827 381.647003,617.681824 363.263641,645.266174 
	C360.947418,648.741699 360.358093,651.725037 363.120605,655.368286 
	C371.053467,672.162964 378.990662,688.613403 387.017059,705.020203 
	C403.652893,739.025757 420.336212,773.008118 437.000000,807.000000 
M185.291031,604.258545 
	C177.154480,613.378174 169.062622,622.538147 160.870056,631.607117 
	C150.669235,642.899170 140.351334,654.085449 130.160873,665.386780 
	C127.603302,668.223083 125.339493,671.324402 122.208565,675.213196 
	C130.822327,674.300354 138.163071,673.601990 145.482758,672.727234 
	C155.260666,671.558777 165.013016,670.174805 174.793396,669.029053 
	C184.594025,667.880859 194.423355,666.978455 204.225967,665.846008 
	C214.661484,664.640442 225.077179,663.264404 235.507553,662.013000 
	C244.809036,660.897034 254.121811,659.875305 263.423950,658.764771 
	C273.694000,657.538696 283.969879,656.348877 294.218262,654.959534 
	C298.519073,654.376526 304.149841,654.778503 306.796661,652.245972 
	C324.593231,635.217590 341.750031,617.520569 359.710388,599.756714 
	C383.491730,575.491943 407.273041,551.227112 431.539124,526.467773 
	C430.014709,526.221313 429.391296,526.003723 428.782745,526.039429 
	C417.904053,526.676575 407.034210,527.511414 396.148376,527.968811 
	C377.107330,528.768799 358.056519,529.335083 339.010223,530.010986 
	C330.069489,530.328308 321.130341,530.690918 312.189392,531.001831 
	C292.644073,531.681335 273.094086,532.252258 253.557541,533.125305 
	C251.212646,533.230042 248.276978,534.319580 246.738464,535.988342 
	C235.649384,548.015991 224.852188,560.312683 213.958176,572.520203 
	C204.602905,583.003418 195.241913,593.481567 185.291031,604.258545 
M501.189697,585.629822 
	C522.646057,607.437622 544.059021,629.288513 565.645325,650.966919 
	C567.279053,652.607605 570.068176,653.583801 572.450867,653.907349 
	C582.055847,655.211609 591.720764,656.066284 601.346985,657.224854 
	C611.117676,658.400696 620.858093,659.830139 630.631531,660.980408 
	C640.427856,662.133301 650.258850,662.990112 660.055969,664.136475 
	C673.256470,665.681091 686.441162,667.362122 699.628723,669.016113 
	C709.232605,670.220642 718.822266,671.541260 728.432922,672.687866 
	C736.024536,673.593445 743.638489,674.312866 751.242493,675.114990 
	C751.461670,674.755554 751.680847,674.396118 751.900024,674.036682 
	C748.557373,670.469116 745.144226,666.964600 741.884399,663.322937 
	C728.229004,648.068298 714.605835,632.784790 701.001831,617.484314 
	C696.840698,612.804199 692.867188,607.955383 688.651062,603.326477 
	C681.199463,595.145447 673.627625,587.073853 665.804626,578.347961 
	C662.274048,574.401672 658.722839,570.473755 655.216980,566.505615 
	C645.812744,555.861389 636.447144,545.182800 626.995789,534.580688 
	C626.302917,533.803528 625.083618,533.195740 624.045105,533.079224 
	C619.785339,532.601318 615.506470,532.199768 611.224426,532.031006 
	C592.843933,531.306519 574.459778,530.672424 556.076904,530.009216 
	C537.527344,529.339966 518.980469,528.580322 500.427155,528.037292 
	C484.324707,527.565918 468.214294,527.371338 452.109222,526.979126 
	C449.502289,526.915649 446.904968,526.459839 444.303192,526.185364 
	C444.083344,526.627808 443.863464,527.070251 443.643616,527.512695 
	C448.729095,532.477722 453.885925,537.372009 458.886536,542.421082 
	C472.919373,556.590027 486.887695,570.822876 501.189697,585.629822 
z"/>
<path fill="#D8C08A" opacity="1.000000" stroke="none" 
	d="
M873.000000,264.750000 
	C856.657593,287.041901 840.317993,309.085876 823.965576,331.120331 
	C822.983643,332.443451 821.898804,333.690216 820.360352,334.879761 
	C818.437744,334.528534 817.009888,334.015594 815.596497,334.052795 
	C806.075684,334.303284 796.559204,334.731934 787.037842,334.942505 
	C785.356140,334.979706 783.657776,334.264282 781.998535,333.551453 
	C786.444397,326.924591 790.858887,320.642670 795.519531,314.289795 
	C795.952087,313.923981 796.138428,313.629150 796.324829,313.334290 
	C795.864075,313.532593 795.403381,313.730896 794.523560,313.955750 
	C786.223633,315.640808 778.338074,317.276886 770.463013,318.961792 
	C737.021545,326.116852 703.589417,333.315094 670.139954,340.432159 
	C660.820374,342.415039 651.453064,344.173523 641.739990,345.881226 
	C638.797485,345.267090 636.210266,344.351746 633.649780,344.421326 
	C618.814819,344.824585 603.986084,345.459930 589.155273,346.016754 
	C595.557068,338.058472 601.927368,330.074280 608.401978,322.175690 
	C609.181763,321.224335 610.442322,320.343994 611.621887,320.090515 
	C641.533386,313.661438 671.477051,307.381409 701.386780,300.944031 
	C723.261597,296.236084 745.083923,291.284698 766.952026,286.544983 
	C792.680054,280.968628 818.431885,275.502045 844.174194,269.991364 
	C853.503540,267.994263 862.834961,266.007385 872.582764,264.007935 
	C873.000000,264.000000 873.000000,264.500000 873.000000,264.750000 
z"/>
<path fill="#C4A061" opacity="1.000000" stroke="none" 
	d="
M514.834595,651.004517 
	C502.431610,676.271973 489.985107,701.518127 477.637634,726.812622 
	C464.721252,753.272583 451.900024,779.779053 439.018616,806.632568 
	C438.555542,807.000000 438.111115,807.000000 437.333313,807.000000 
	C420.336212,773.008118 403.652893,739.025757 387.017059,705.020203 
	C378.990662,688.613403 371.053467,672.162964 363.522827,655.304565 
	C365.242645,654.585999 366.507416,654.087341 367.789734,654.037292 
	C377.802734,653.646484 387.819061,653.341736 398.003113,653.334839 
	C411.256653,680.458435 424.341492,707.257629 437.722717,734.663940 
	C442.436157,725.192017 446.723511,716.575684 451.011505,707.959595 
	C460.300659,689.294250 469.590179,670.629089 479.303467,651.928101 
	C488.848663,651.261658 497.964569,650.521240 507.094727,650.070312 
	C509.653046,649.943970 512.253479,650.669678 514.834595,651.004517 
z"/>
<path fill="#EFE5BA" opacity="1.000000" stroke="none" 
	d="
M395.095581,100.028061 
	C407.883209,70.411125 420.666321,40.792236 433.464966,11.180063 
	C434.843628,7.990226 436.312286,4.839297 437.869598,1.335158 
	C438.000000,1.000000 438.500000,1.000000 438.750000,1.000003 
	C448.708160,23.350449 458.398285,45.708759 468.131531,68.048302 
	C473.692383,80.811508 479.323364,93.544151 484.459106,106.646942 
	C472.965973,107.338242 461.936523,107.673172 450.631958,107.803368 
	C446.482483,98.934410 442.608063,90.270172 438.607361,81.323601 
	C435.578369,87.828506 432.740112,93.923775 429.479065,100.014191 
	C417.736023,100.015579 406.415833,100.021820 395.095581,100.028061 
z"/>
<path fill="#DBC590" opacity="1.000000" stroke="none" 
	d="
M33.905823,308.045349 
	C28.387659,300.924408 22.796478,293.858521 17.372044,286.666840 
	C12.037803,279.594757 6.872763,272.395081 1.316737,265.125671 
	C1.000000,265.000000 1.000000,264.500000 0.999998,264.250000 
	C11.784846,266.221985 22.581635,268.387756 33.352318,270.676361 
	C66.808250,277.785248 100.260727,284.910706 133.701065,292.092499 
	C147.683792,295.095459 161.632568,298.256409 175.481293,301.807617 
	C172.969025,302.846313 170.589294,303.829285 168.172577,303.930603 
	C156.568161,304.417267 144.955017,304.722839 133.342545,304.985016 
	C116.238922,305.371185 99.132851,305.647461 82.028557,306.005737 
	C67.420410,306.311768 52.812580,306.641022 38.206871,307.042328 
	C36.765087,307.081940 35.339130,307.697235 33.905823,308.045349 
z"/>
<path fill="#C6A466" opacity="1.000000" stroke="none" 
	d="
M666.106079,578.956482 
	C673.627625,587.073853 681.199463,595.145447 688.651062,603.326477 
	C692.867188,607.955383 696.840698,612.804199 701.001831,617.484314 
	C714.605835,632.784790 728.229004,648.068298 741.884399,663.322937 
	C745.144226,666.964600 748.557373,670.469116 751.900024,674.036682 
	C751.680847,674.396118 751.461670,674.755554 751.242493,675.114990 
	C743.638489,674.312866 736.024536,673.593445 728.432922,672.687866 
	C718.822266,671.541260 709.232605,670.220642 699.628723,669.016113 
	C686.441162,667.362122 673.256470,665.681091 660.055969,664.136475 
	C650.258850,662.990112 640.427856,662.133301 630.631531,660.980408 
	C620.858093,659.830139 611.117676,658.400696 601.346985,657.224854 
	C591.720764,656.066284 582.055847,655.211609 572.450867,653.907349 
	C570.068176,653.583801 567.279053,652.607605 565.645325,650.966919 
	C544.059021,629.288513 522.646057,607.437622 501.484985,585.320801 
	C508.176056,584.674500 514.570679,584.313965 520.967834,584.005920 
	C528.680908,583.634460 536.396179,583.307678 544.405029,583.107300 
	C556.638977,595.504883 568.556946,607.777832 580.550293,619.976624 
	C581.762573,621.209656 583.337524,622.667114 584.900330,622.881409 
	C596.119019,624.419678 607.382263,625.629089 618.623047,627.010681 
	C628.230530,628.191467 637.819275,629.527039 647.430725,630.673096 
	C655.018494,631.577820 662.628296,632.298584 671.664673,633.252747 
	C655.434082,615.134583 640.157471,598.081360 625.356873,581.019531 
	C639.257263,580.326111 652.681702,579.641296 666.106079,578.956482 
z"/>
<path fill="#CDAF74" opacity="1.000000" stroke="none" 
	d="
M362.112488,440.949860 
	C367.665344,447.460388 373.303833,453.900238 378.751312,460.497742 
	C387.239838,470.778198 395.579620,481.181305 404.017975,491.503357 
	C411.837250,501.068146 419.708588,510.590332 427.524261,520.158020 
	C427.779419,520.470398 427.676544,521.075317 427.773254,521.782959 
	C416.578400,520.422913 405.535706,519.141602 394.510376,517.725403 
	C382.787170,516.219543 371.078613,514.598755 359.366882,513.004700 
	C348.143066,511.477020 336.927795,509.886322 325.700409,508.385590 
	C316.906494,507.210114 308.099579,506.132202 299.298981,505.006470 
	C290.661469,503.901611 282.020721,502.821198 273.388733,501.674652 
	C264.438446,500.485809 255.497910,499.223724 246.551437,498.005829 
	C234.839386,496.411407 223.131226,494.786713 211.410919,493.255127 
	C202.609558,492.104950 193.793243,491.068054 184.980621,490.005432 
	C179.104279,489.296875 173.201996,488.762878 167.360474,487.839691 
	C166.148819,487.648193 164.939880,486.246429 164.093170,485.127441 
	C157.445526,476.342010 150.886383,467.489655 144.684036,458.330017 
	C156.148621,457.666138 167.230209,457.359680 178.308151,456.954163 
	C179.584045,456.907440 180.839737,456.308868 182.439865,456.136414 
	C184.630173,456.874237 186.449539,457.716888 188.346512,457.964142 
	C199.595703,459.430298 210.875946,460.660675 222.120392,462.160492 
	C233.346069,463.657837 244.525650,465.503510 255.755066,466.969635 
	C269.774200,468.799988 283.838348,470.286377 297.855774,472.128784 
	C311.690186,473.947144 325.485260,476.063049 339.309357,477.962677 
	C343.068939,478.479309 346.871094,478.686340 351.784424,479.139832 
	C341.543854,466.350250 332.206329,454.688477 323.292603,442.972015 
	C325.157349,442.611847 326.590393,442.088165 328.040558,442.035461 
	C339.396027,441.622650 350.754761,441.300201 362.112488,440.949860 
z"/>
<path fill="#C9A86C" opacity="1.000000" stroke="none" 
	d="
M185.883484,603.962036 
	C195.241913,593.481567 204.602905,583.003418 213.958176,572.520203 
	C224.852188,560.312683 235.649384,548.015991 246.738464,535.988342 
	C248.276978,534.319580 251.212646,533.230042 253.557541,533.125305 
	C273.094086,532.252258 292.644073,531.681335 312.189392,531.001831 
	C321.130341,530.690918 330.069489,530.328308 339.010223,530.010986 
	C358.056519,529.335083 377.107330,528.768799 396.148376,527.968811 
	C407.034210,527.511414 417.904053,526.676575 428.782745,526.039429 
	C429.391296,526.003723 430.014709,526.221313 431.539124,526.467773 
	C407.273041,551.227112 383.491730,575.491943 358.988586,599.838501 
	C356.163635,599.613525 354.055267,599.011658 351.958130,599.048462 
	C339.266144,599.271423 326.576721,599.640320 314.035645,599.658569 
	C326.785614,586.925903 339.386353,574.495117 351.987091,562.064331 
	C349.957947,561.008423 348.669617,560.946228 347.388855,561.018127 
	C335.863037,561.665527 324.345795,562.538513 312.811920,562.950500 
	C297.741852,563.488831 282.657990,563.634644 267.583252,564.061951 
	C266.316925,564.097839 264.697906,564.639160 263.878113,565.530212 
	C252.133514,578.296265 240.498260,591.162842 228.432800,603.940796 
	C225.913101,603.584229 223.791946,603.007690 221.682343,603.047119 
	C209.747849,603.270386 197.816147,603.641357 185.883484,603.962036 
z"/>
<path fill="#CDAD73" opacity="1.000000" stroke="none" 
	d="
M727.838745,461.006775 
	C722.055420,468.980347 716.163574,476.878265 710.528992,484.955597 
	C707.084534,489.893280 701.695129,488.029175 697.306519,488.794434 
	C682.916260,491.303772 668.383484,493.016663 653.885864,494.883484 
	C639.860413,496.689545 625.797607,498.206818 611.775818,500.039307 
	C600.545410,501.506989 589.362915,503.338013 578.138916,504.858856 
	C567.222839,506.337952 556.273743,507.571625 545.352478,509.014313 
	C530.861633,510.928558 516.386475,512.960938 501.899292,514.903381 
	C493.915833,515.973816 485.922180,516.968811 477.932037,517.989136 
	C467.673553,519.299133 457.414429,520.604187 447.151978,521.882385 
	C446.900665,521.913696 446.606934,521.604492 445.963501,521.251282 
	C449.432281,516.869812 452.816010,512.509949 456.290344,508.223450 
	C466.349243,495.813324 476.437103,483.426666 486.539093,471.051605 
	C487.377014,470.025208 488.407440,469.155884 489.934082,468.370117 
	C492.316406,468.684448 494.117004,469.013428 495.909058,468.972229 
	C507.647919,468.702332 519.384888,468.352417 530.961304,468.329529 
	C528.159546,471.829651 525.519043,475.028839 522.878540,478.228027 
	C529.392639,478.497345 535.223328,477.768829 541.048767,476.999573 
	C550.148132,475.798035 559.241272,474.548798 568.341858,473.356628 
	C579.561768,471.886841 590.783752,470.432861 602.010193,469.013550 
	C610.801025,467.902100 619.602417,466.873810 628.394592,465.772766 
	C641.249817,464.162872 654.101074,462.520905 667.178223,461.179474 
	C668.936462,461.030792 670.470398,460.595184 672.331177,460.101318 
	C673.096863,459.987000 673.535706,459.931000 674.199219,460.196991 
	C676.635742,461.012665 678.853210,461.955536 681.058472,461.927887 
	C696.653259,461.732422 712.245605,461.337830 727.838745,461.006775 
z"/>
<path fill="#C6A466" opacity="1.000000" stroke="none" 
	d="
M313.886475,599.960510 
	C326.576721,599.640320 339.266144,599.271423 351.958130,599.048462 
	C354.055267,599.011658 356.163635,599.613525 358.690491,599.980225 
	C341.750031,617.520569 324.593231,635.217590 306.796661,652.245972 
	C304.149841,654.778503 298.519073,654.376526 294.218262,654.959534 
	C283.969879,656.348877 273.694000,657.538696 263.423950,658.764771 
	C254.121811,659.875305 244.809036,660.897034 235.507553,662.013000 
	C225.077179,663.264404 214.661484,664.640442 204.225967,665.846008 
	C194.423355,666.978455 184.594025,667.880859 174.793396,669.029053 
	C165.013016,670.174805 155.260666,671.558777 145.482758,672.727234 
	C138.163071,673.601990 130.822327,674.300354 122.208565,675.213196 
	C125.339493,671.324402 127.603302,668.223083 130.160873,665.386780 
	C140.351334,654.085449 150.669235,642.899170 160.870056,631.607117 
	C169.062622,622.538147 177.154480,613.378174 185.587250,604.110291 
	C197.816147,603.641357 209.747849,603.270386 221.682343,603.047119 
	C223.791946,603.007690 225.913101,603.584229 228.377197,604.265503 
	C220.286972,613.888977 211.848450,623.123413 202.691238,633.144287 
	C208.633194,632.630798 213.516434,632.353210 218.361359,631.761780 
	C230.748016,630.250000 243.106964,628.509216 255.497421,627.031311 
	C265.299866,625.862061 275.139923,625.011047 284.948456,623.889038 
	C289.141876,623.409363 292.455719,621.416260 295.443054,618.216980 
	C301.342255,611.899353 307.711578,606.020752 313.886475,599.960510 
z"/>
<path fill="#C9A86C" opacity="1.000000" stroke="none" 
	d="
M665.955322,578.652222 
	C652.681702,579.641296 639.257263,580.326111 625.072876,580.848083 
	C619.734741,575.489258 615.221130,570.233337 610.512085,565.158752 
	C609.766052,564.354797 608.151855,564.106567 606.917297,564.045959 
	C598.489075,563.632324 590.057495,563.238831 581.622253,563.025330 
	C565.535339,562.618103 549.444946,562.354797 533.357361,561.971741 
	C531.742310,561.933228 530.145264,561.379272 528.525146,561.250916 
	C526.884399,561.120850 525.225281,561.222229 523.574280,561.222229 
	C523.245544,561.782104 522.916809,562.342041 522.588074,562.901917 
	C529.762207,569.588501 536.936340,576.275024 544.110474,582.961548 
	C536.396179,583.307678 528.680908,583.634460 520.967834,584.005920 
	C514.570679,584.313965 508.176056,584.674500 501.330902,585.021118 
	C486.887695,570.822876 472.919373,556.590027 458.886536,542.421082 
	C453.885925,537.372009 448.729095,532.477722 443.643616,527.512695 
	C443.863464,527.070251 444.083344,526.627808 444.303192,526.185364 
	C446.904968,526.459839 449.502289,526.915649 452.109222,526.979126 
	C468.214294,527.371338 484.324707,527.565918 500.427155,528.037292 
	C518.980469,528.580322 537.527344,529.339966 556.076904,530.009216 
	C574.459778,530.672424 592.843933,531.306519 611.224426,532.031006 
	C615.506470,532.199768 619.785339,532.601318 624.045105,533.079224 
	C625.083618,533.195740 626.302917,533.803528 626.995789,534.580688 
	C636.447144,545.182800 645.812744,555.861389 655.216980,566.505615 
	C658.722839,570.473755 662.274048,574.401672 665.955322,578.652222 
z"/>
<path fill="#C7A568" opacity="1.000000" stroke="none" 
	d="
M397.834412,653.010498 
	C387.819061,653.341736 377.802734,653.646484 367.789734,654.037292 
	C366.507416,654.087341 365.242645,654.585999 363.567505,654.940613 
	C360.358093,651.725037 360.947418,648.741699 363.263641,645.266174 
	C381.647003,617.681824 399.899109,590.009827 418.145233,562.334229 
	C424.550873,552.618347 430.827301,542.817322 437.693024,532.238098 
	C442.070801,538.743042 446.034485,544.625061 449.990570,550.512207 
	C471.227173,582.114685 492.478851,613.707092 513.640503,645.359680 
	C514.571045,646.751648 514.671753,648.698425 514.996826,650.695679 
	C512.253479,650.669678 509.653046,649.943970 507.094727,650.070312 
	C497.964569,650.521240 488.848663,651.261658 479.219208,651.602295 
	C465.285400,631.421753 451.859772,611.531250 437.944305,590.915039 
	C432.099182,599.886963 426.888397,607.821838 421.742432,615.798645 
	C413.749939,628.187683 405.801514,640.605103 397.834412,653.010498 
z"/>
<path fill="#D8C08A" opacity="1.000000" stroke="none" 
	d="
M33.966743,308.391296 
	C35.339130,307.697235 36.765087,307.081940 38.206871,307.042328 
	C52.812580,306.641022 67.420410,306.311768 82.028557,306.005737 
	C99.132851,305.647461 116.238922,305.371185 133.342545,304.985016 
	C144.955017,304.722839 156.568161,304.417267 168.172577,303.930603 
	C170.589294,303.829285 172.969025,302.846313 175.726349,302.108459 
	C186.543503,304.049530 197.023483,306.042725 207.451447,308.278564 
	C225.256836,312.096100 242.978027,316.329315 260.844543,319.826202 
	C266.956207,321.022461 268.567322,326.177277 271.783844,329.794128 
	C279.104919,338.026398 285.824524,346.793579 292.552551,355.816742 
	C291.360352,356.523865 290.409760,356.934296 289.447174,356.964600 
	C277.349182,357.345367 265.249512,357.671204 252.979889,357.712067 
	C250.064194,354.630768 247.760757,350.256836 244.494720,349.350098 
	C232.313232,345.968170 219.818375,343.712311 207.436691,341.054443 
	C173.982895,333.873260 140.526550,326.703918 107.071892,319.526764 
	C97.524498,317.478516 87.979393,315.419617 77.571014,313.180115 
	C85.419968,324.050720 92.628563,334.034424 99.418404,344.014587 
	C88.735268,344.341095 78.469032,344.625336 68.208015,345.039124 
	C66.099998,345.124115 64.011490,345.693176 61.913994,346.039124 
	C56.314320,338.798920 50.639793,331.615051 45.140606,324.299316 
	C41.311691,319.205627 37.723427,313.931061 33.966743,308.391296 
z"/>
<path fill="#D0B279" opacity="1.000000" stroke="none" 
	d="
M510.111145,400.023224 
	C502.427124,413.160156 494.747223,426.299469 487.057709,439.433167 
	C481.925659,448.198730 476.779968,456.956329 471.065247,465.595642 
	C464.585541,465.649200 458.681549,465.847565 452.776276,465.995453 
	C438.874512,466.343597 424.971497,466.645691 411.071259,467.045288 
	C410.018768,467.075562 408.984192,467.729431 407.941254,468.093384 
	C400.624481,455.715271 393.278168,443.354462 386.003296,430.951782 
	C382.280487,424.604858 378.685608,418.182892 375.276428,411.129456 
	C387.049408,409.963654 398.578949,409.463196 410.408936,409.124390 
	C419.963806,425.063416 429.218201,440.840790 438.781006,457.143921 
	C442.400299,451.093109 445.666626,445.599304 448.964905,440.124725 
	C457.022919,426.749878 465.095703,413.383942 473.572601,400.021606 
	C477.093933,400.349426 480.210602,400.984467 483.315399,400.931061 
	C492.249908,400.777435 501.179565,400.345703 510.111145,400.023224 
z"/>
<path fill="#D3B981" opacity="1.000000" stroke="none" 
	d="
M253.150238,358.011108 
	C265.249512,357.671204 277.349182,357.345367 289.447174,356.964600 
	C290.409760,356.934296 291.360352,356.523865 292.707031,356.117920 
	C302.518311,367.534485 311.890503,379.163208 321.373322,390.701019 
	C331.295563,402.773499 341.349274,414.737793 351.292847,426.792847 
	C354.941925,431.216766 358.440125,435.765106 362.059814,440.603271 
	C350.754761,441.300201 339.396027,441.622650 328.040558,442.035461 
	C326.590393,442.088165 325.157349,442.611847 322.993561,442.827698 
	C299.230591,414.495728 276.190430,386.253418 253.150238,358.011108 
z"/>
<path fill="#DEC996" opacity="1.000000" stroke="none" 
	d="
M521.052246,190.976883 
	C525.318115,200.250076 529.715393,209.465530 533.821106,218.809097 
	C541.186523,235.570953 548.393677,252.402557 555.626709,269.222321 
	C557.184631,272.845184 558.571533,276.541626 559.592590,280.595734 
	C549.287781,281.327606 539.426514,281.642731 529.569153,282.051270 
	C528.684631,282.087921 527.825195,282.729279 526.665283,282.889343 
	C525.331482,280.623718 524.177246,278.605957 523.258789,276.485992 
	C514.876221,257.137024 506.503448,237.783691 498.195404,218.402649 
	C494.439667,209.641251 490.836609,200.814423 487.622559,192.013153 
	C499.071289,191.664978 510.061768,191.320923 521.052246,190.976883 
z"/>
<path fill="#D3B981" opacity="1.000000" stroke="none" 
	d="
M588.990723,346.315826 
	C603.986084,345.459930 618.814819,344.824585 633.649780,344.421326 
	C636.210266,344.351746 638.797485,345.267090 641.493103,346.183105 
	C639.032166,347.129791 636.286865,347.226044 633.909973,348.211182 
	C630.895203,349.460632 627.546387,350.863647 625.452148,353.197113 
	C618.854248,360.548737 612.770752,368.362366 606.496948,376.004486 
	C596.368469,388.342163 586.247009,400.685638 575.646240,413.018188 
	C561.742004,412.993347 548.313965,412.977020 534.885986,412.960663 
	C538.549377,408.177917 542.105286,403.308167 545.896240,398.628784 
	C557.251770,384.612152 568.680847,370.654816 580.123840,356.709412 
	C582.941101,353.276031 585.921082,349.976135 588.990723,346.315826 
z"/>
<path fill="#D3B981" opacity="1.000000" stroke="none" 
	d="
M781.967102,333.896423 
	C783.657776,334.264282 785.356140,334.979706 787.037842,334.942505 
	C796.559204,334.731934 806.075684,334.303284 815.596497,334.052795 
	C817.009888,334.015594 818.437744,334.528534 820.149292,335.148376 
	C805.336853,356.121246 790.235901,376.734100 775.120361,397.336243 
	C774.733887,397.863007 774.186646,398.271881 772.934814,398.873962 
	C759.401245,398.995728 746.647339,398.979309 733.949219,398.613708 
	C740.687866,389.122223 747.297485,379.925110 754.071716,370.850952 
	C763.304443,358.483673 772.662659,346.210144 781.967102,333.896423 
z"/>
<path fill="#D0B279" opacity="1.000000" stroke="none" 
	d="
M733.893433,398.962891 
	C746.647339,398.979309 759.401245,398.995728 772.632812,399.023499 
	C767.264648,407.296448 761.492798,415.611694 755.555054,423.806732 
	C747.292419,435.210480 738.913757,446.530334 730.556641,457.865387 
	C729.873474,458.791992 728.974915,459.559814 728.007568,460.704071 
	C712.245605,461.337830 696.653259,461.732422 681.058472,461.927887 
	C678.853210,461.955536 676.635742,461.012665 674.460205,459.883606 
	C675.982727,459.161041 677.526306,459.301239 678.944763,458.944275 
	C683.274231,457.854797 688.829651,457.851257 691.588501,455.099579 
	C697.209167,449.493591 701.240601,442.312317 706.055481,435.876343 
	C715.287354,423.536346 724.608948,411.263519 733.893433,398.962891 
z"/>
<path fill="#D3B981" opacity="1.000000" stroke="none" 
	d="
M61.974678,346.385437 
	C64.011490,345.693176 66.099998,345.124115 68.208015,345.039124 
	C78.469032,344.625336 88.735268,344.341095 99.585709,344.315826 
	C100.744324,345.224579 101.384544,345.777924 101.879501,346.439911 
	C111.839455,359.760742 121.848579,373.045624 131.701645,386.445221 
	C136.650604,393.175537 141.309708,400.118988 145.708557,407.131348 
	C138.029083,407.531464 130.727493,407.570709 123.457466,408.069885 
	C118.598061,408.403564 113.783554,409.391205 108.948952,410.086182 
	C101.495346,400.085571 94.016243,390.103882 86.594955,380.079346 
	C78.380836,368.983887 70.219620,357.849304 61.974678,346.385437 
z"/>
<path fill="#D3B981" opacity="1.000000" stroke="none" 
	d="
M510.394287,399.840149 
	C501.179565,400.345703 492.249908,400.777435 483.315399,400.931061 
	C480.210602,400.984467 477.093933,400.349426 473.631104,399.680847 
	C473.950562,398.009064 474.542755,396.637970 475.304352,395.368439 
	C487.577209,374.910645 499.871613,354.465729 512.619690,334.012451 
	C525.329773,334.009064 537.581299,334.011108 549.832825,334.013123 
	C537.719604,354.351593 525.607422,374.690643 513.491394,395.027435 
	C512.567078,396.578827 511.616028,398.114227 510.394287,399.840149 
z"/>
<path fill="#D8C08A" opacity="1.000000" stroke="none" 
	d="
M339.394196,349.133057 
	C336.263489,344.424286 332.916534,339.843140 330.045807,334.980865 
	C323.533691,323.950928 317.152069,312.839722 310.987640,301.613129 
	C309.985352,299.787781 309.682739,297.004974 310.258453,295.011810 
	C311.294708,291.424133 313.240753,288.099243 315.429260,284.335419 
	C327.404388,283.676849 338.756958,283.347443 350.058472,283.396118 
	C349.141144,285.900696 348.392822,288.085022 347.384033,290.141602 
	C345.278900,294.433319 345.638885,297.878174 348.365204,302.292725 
	C357.616241,317.272552 366.081635,332.737579 374.388245,348.011536 
	C362.417633,348.381531 350.905914,348.757294 339.394196,349.133057 
z"/>
<path fill="#E9DBAC" opacity="1.000000" stroke="none" 
	d="
M394.930511,100.347137 
	C406.415833,100.021820 417.736023,100.015579 429.478729,100.377419 
	C424.368500,113.611069 418.927368,126.517044 413.273071,139.328964 
	C409.025665,148.953171 404.504517,158.456589 399.630524,168.008636 
	C387.806976,168.342468 376.458160,168.681458 365.109344,169.020447 
	C374.994690,146.235718 384.880035,123.450966 394.930511,100.347137 
z"/>
<path fill="#DEC996" opacity="1.000000" stroke="none" 
	d="
M350.109528,283.018036 
	C338.756958,283.347443 327.404388,283.676849 315.595795,284.014130 
	C321.595001,269.014801 328.040192,254.003281 334.509827,239.002319 
	C337.580902,231.881485 340.698578,224.780746 344.394592,217.338654 
	C354.650024,216.670959 364.304657,216.276245 373.963226,216.056259 
	C375.646027,216.017929 377.345642,216.716187 378.988159,217.435242 
	C373.448059,230.547546 368.034698,243.332916 362.440399,256.038605 
	C358.456268,265.087280 354.228546,274.028748 350.109528,283.018036 
z"/>
<path fill="#D0B279" opacity="1.000000" stroke="none" 
	d="
M534.591675,413.114838 
	C548.313965,412.977020 561.742004,412.993347 575.483582,413.317200 
	C560.905640,431.759338 546.014038,449.893982 531.122498,468.028656 
	C519.384888,468.352417 507.647919,468.702332 495.909058,468.972229 
	C494.117004,469.013428 492.316406,468.684448 490.234192,468.210693 
	C495.087006,461.307373 500.144684,454.655090 505.382111,448.147491 
	C514.023010,437.410919 522.771729,426.761017 531.501587,416.096375 
	C532.337463,415.075287 533.361023,414.207825 534.591675,413.114838 
z"/>
<path fill="#D3B981" opacity="1.000000" stroke="none" 
	d="
M339.421204,349.525269 
	C350.905914,348.757294 362.417633,348.381531 374.558411,348.318268 
	C375.629578,349.123535 376.173920,349.557098 376.498749,350.117828 
	C382.739929,360.892456 388.988800,371.662903 395.165741,382.474396 
	C400.194641,391.276428 405.131012,400.131317 410.108459,408.962708 
	C398.578949,409.463196 387.049408,409.963654 375.229004,410.774719 
	C370.735077,404.279694 366.422516,397.538788 362.353210,390.654083 
	C355.171570,378.503662 348.120361,366.275848 341.069611,354.048676 
	C340.338806,352.781342 339.979736,351.299683 339.421204,349.525269 
z"/>
<path fill="#D0B279" opacity="1.000000" stroke="none" 
	d="
M109.100861,410.390259 
	C113.783554,409.391205 118.598061,408.403564 123.457466,408.069885 
	C130.727493,407.570709 138.029083,407.531464 146.005402,407.287506 
	C153.428421,416.324127 160.232056,425.319733 166.876038,434.431702 
	C172.055267,441.534760 177.035904,448.782623 182.104797,455.966156 
	C180.839737,456.308868 179.584045,456.907440 178.308151,456.954163 
	C167.230209,457.359680 156.148621,457.666138 144.618500,458.003540 
	C132.530182,442.234802 120.891472,426.464569 109.100861,410.390259 
z"/>
<path fill="#D8C08A" opacity="1.000000" stroke="none" 
	d="
M550.006226,333.701904 
	C537.581299,334.011108 525.329773,334.009064 512.685791,333.679138 
	C518.998413,322.239990 525.770386,311.167755 532.298523,299.953552 
	C532.908875,298.905029 532.221558,296.872864 531.716309,295.446289 
	C530.243225,291.286987 528.556885,287.203217 526.954102,283.089813 
	C527.825195,282.729279 528.684631,282.087921 529.569153,282.051270 
	C539.426514,281.642731 549.287781,281.327606 559.623779,280.975464 
	C562.998718,287.194855 566.007568,293.379639 568.687317,299.703857 
	C569.125549,300.738068 568.405029,302.557434 567.724670,303.725220 
	C561.941345,313.651550 556.043335,323.511108 550.006226,333.701904 
z"/>
<path fill="#CDAD73" opacity="1.000000" stroke="none" 
	d="
M407.987427,468.445251 
	C408.984192,467.729431 410.018768,467.075562 411.071259,467.045288 
	C424.971497,466.645691 438.874512,466.343597 452.776276,465.995453 
	C458.681549,465.847565 464.585541,465.649200 470.773010,465.784302 
	C460.442047,484.029144 449.828125,501.963501 438.491760,521.118591 
	C427.927124,502.970551 417.980347,485.883850 407.987427,468.445251 
z"/>
<path fill="#E3D2A1" opacity="1.000000" stroke="none" 
	d="
M379.037476,217.074234 
	C377.345642,216.716187 375.646027,216.017929 373.963226,216.056259 
	C364.304657,216.276245 354.650024,216.670959 344.560669,217.014084 
	C351.009460,201.234512 357.891663,185.447266 364.941589,169.340240 
	C376.458160,168.681458 387.806976,168.342468 399.583862,168.387115 
	C393.020477,184.871918 386.028961,200.973083 379.037476,217.074234 
z"/>
<path fill="#E3D2A1" opacity="1.000000" stroke="none" 
	d="
M521.030579,190.598969 
	C510.061768,191.320923 499.071289,191.664978 487.442322,191.697556 
	C480.512238,176.926682 474.220673,162.467270 468.402130,148.006012 
	C474.459290,148.003204 480.065948,148.313309 485.621002,147.911087 
	C490.858917,147.531830 496.042542,146.402573 501.250031,145.603256 
	C505.491241,154.868164 509.796539,164.104446 513.949463,173.408752 
	C516.426208,178.957687 518.663818,184.613342 521.030579,190.598969 
z"/>
<path fill="#E9DBAC" opacity="1.000000" stroke="none" 
	d="
M501.182648,145.249390 
	C496.042542,146.402573 490.858917,147.531830 485.621002,147.911087 
	C480.065948,148.313309 474.459290,148.003204 468.125305,147.792358 
	C464.743134,141.374451 462.076172,135.182785 459.487915,128.958405 
	C456.590454,121.990425 453.764221,114.992821 450.907043,108.008102 
	C461.936523,107.673172 472.965973,107.338242 484.455017,107.012375 
	C490.314819,119.646126 495.715027,132.270828 501.182648,145.249390 
z"/>
<path fill="#FFFFFF" opacity="1.000000" stroke="none" 
	d="
M530.961304,468.329529 
	C546.014038,449.893982 560.905640,431.759338 575.959839,413.325684 
	C586.247009,400.685638 596.368469,388.342163 606.496948,376.004486 
	C612.770752,368.362366 618.854248,360.548737 625.452148,353.197113 
	C627.546387,350.863647 630.895203,349.460632 633.909973,348.211182 
	C636.286865,347.226044 639.032166,347.129791 641.860718,346.336853 
	C651.453064,344.173523 660.820374,342.415039 670.139954,340.432159 
	C703.589417,333.315094 737.021545,326.116852 770.463013,318.961792 
	C778.338074,317.276886 786.223633,315.640808 794.608765,314.061646 
	C795.113159,314.141083 795.273376,314.360748 795.273376,314.360748 
	C790.858887,320.642670 786.444397,326.924591 781.998535,333.551453 
	C772.662659,346.210144 763.304443,358.483673 754.071716,370.850952 
	C747.297485,379.925110 740.687866,389.122223 733.949158,398.613708 
	C724.608948,411.263519 715.287354,423.536346 706.055481,435.876343 
	C701.240601,442.312317 697.209167,449.493591 691.588501,455.099579 
	C688.829651,457.851257 683.274231,457.854797 678.944763,458.944275 
	C677.526306,459.301239 675.982727,459.161041 674.235474,459.561584 
	C673.535706,459.931000 673.096863,459.987000 671.947021,460.037689 
	C669.808594,460.319092 668.381287,460.605835 666.953979,460.892578 
	C654.101074,462.520905 641.249817,464.162872 628.394592,465.772766 
	C619.602417,466.873810 610.801025,467.902100 602.010193,469.013550 
	C590.783752,470.432861 579.561768,471.886841 568.341858,473.356628 
	C559.241272,474.548798 550.148132,475.798035 541.048767,476.999573 
	C535.223328,477.768829 529.392639,478.497345 522.878540,478.228027 
	C525.519043,475.028839 528.159546,471.829651 530.961304,468.329529 
z"/>
<path fill="#FFFFFF" opacity="1.000000" stroke="none" 
	d="
M795.027954,314.035156 
	C795.403381,313.730896 795.864075,313.532593 796.324829,313.334290 
	C796.138428,313.629150 795.952087,313.923981 795.519531,314.289795 
	C795.273376,314.360748 795.113159,314.141083 795.027954,314.035156 
z"/>
<path fill="#FFFFFF" opacity="1.000000" stroke="none" 
	d="
M398.003113,653.334839 
	C405.801514,640.605103 413.749939,628.187683 421.742432,615.798645 
	C426.888397,607.821838 432.099182,599.886963 437.944305,590.915039 
	C451.859772,611.531250 465.285400,631.421753 478.795288,651.638000 
	C469.590179,670.629089 460.300659,689.294250 451.011505,707.959595 
	C446.723511,716.575684 442.436157,725.192017 437.722717,734.663940 
	C424.341492,707.257629 411.256653,680.458435 398.003113,653.334839 
z"/>
<path fill="#FFFFFF" opacity="1.000000" stroke="none" 
	d="
M450.631958,107.803375 
	C453.764221,114.992821 456.590454,121.990425 459.487915,128.958405 
	C462.076172,135.182785 464.743134,141.374451 467.652222,147.794189 
	C474.220673,162.467270 480.512238,176.926682 486.984039,191.701691 
	C490.836609,200.814423 494.439667,209.641251 498.195404,218.402649 
	C506.503448,237.783691 514.876221,257.137024 523.258789,276.485992 
	C524.177246,278.605957 525.331482,280.623718 526.665283,282.889343 
	C528.556885,287.203217 530.243225,291.286987 531.716309,295.446289 
	C532.221558,296.872864 532.908875,298.905029 532.298523,299.953552 
	C525.770386,311.167755 518.998413,322.239990 512.227295,333.684540 
	C499.871613,354.465729 487.577209,374.910645 475.304352,395.368439 
	C474.542755,396.637970 473.950562,398.009064 473.221008,399.673645 
	C465.095703,413.383942 457.022919,426.749878 448.964905,440.124725 
	C445.666626,445.599304 442.400299,451.093109 438.781006,457.143921 
	C429.218201,440.840790 419.963806,425.063416 410.408936,409.124390 
	C405.131012,400.131317 400.194641,391.276428 395.165741,382.474396 
	C388.988800,371.662903 382.739929,360.892456 376.498749,350.117828 
	C376.173920,349.557098 375.629578,349.123535 375.017273,348.323975 
	C366.081635,332.737579 357.616241,317.272552 348.365204,302.292725 
	C345.638885,297.878174 345.278900,294.433319 347.384033,290.141602 
	C348.392822,288.085022 349.141144,285.900696 350.058472,283.396118 
	C354.228546,274.028748 358.456268,265.087280 362.440399,256.038605 
	C368.034698,243.332916 373.448059,230.547546 378.988159,217.435242 
	C386.028961,200.973083 393.020477,184.871918 400.058594,168.392273 
	C404.504517,158.456589 409.025665,148.953171 413.273071,139.328964 
	C418.927368,126.517044 424.368500,113.611069 429.901550,100.382278 
	C432.740112,93.923775 435.578369,87.828506 438.607361,81.323601 
	C442.608063,90.270172 446.482483,98.934410 450.631958,107.803375 
z"/>
<path fill="#FFFFFF" opacity="1.000000" stroke="none" 
	d="
M544.405029,583.107300 
	C536.936340,576.275024 529.762207,569.588501 522.588074,562.901917 
	C522.916809,562.342041 523.245544,561.782104 523.574280,561.222229 
	C525.225281,561.222229 526.884399,561.120850 528.525146,561.250916 
	C530.145264,561.379272 531.742310,561.933228 533.357361,561.971741 
	C549.444946,562.354797 565.535339,562.618103 581.622253,563.025330 
	C590.057495,563.238831 598.489075,563.632324 606.917297,564.045959 
	C608.151855,564.106567 609.766052,564.354797 610.512085,565.158752 
	C615.221130,570.233337 619.734741,575.489258 624.596924,580.856689 
	C640.157471,598.081360 655.434082,615.134583 671.664673,633.252747 
	C662.628296,632.298584 655.018494,631.577820 647.430725,630.673096 
	C637.819275,629.527039 628.230530,628.191467 618.623047,627.010681 
	C607.382263,625.629089 596.119019,624.419678 584.900330,622.881409 
	C583.337524,622.667114 581.762573,621.209656 580.550293,619.976624 
	C568.556946,607.777832 556.638977,595.504883 544.405029,583.107300 
z"/>
<path fill="#FFFFFF" opacity="1.000000" stroke="none" 
	d="
M182.439865,456.136414 
	C177.035904,448.782623 172.055267,441.534760 166.876038,434.431702 
	C160.232056,425.319733 153.428421,416.324127 146.396729,407.122253 
	C141.309708,400.118988 136.650604,393.175537 131.701645,386.445221 
	C121.848579,373.045624 111.839455,359.760742 101.879501,346.439911 
	C101.384544,345.777924 100.744324,345.224579 100.004456,344.319397 
	C92.628563,334.034424 85.419968,324.050720 77.571014,313.180115 
	C87.979393,315.419617 97.524498,317.478516 107.071892,319.526764 
	C140.526550,326.703918 173.982895,333.873260 207.436691,341.054443 
	C219.818375,343.712311 232.313232,345.968170 244.494720,349.350098 
	C247.760757,350.256836 250.064194,354.630768 252.979889,357.712067 
	C276.190430,386.253418 299.230591,414.495728 322.569763,442.882385 
	C332.206329,454.688477 341.543854,466.350250 351.784424,479.139832 
	C346.871094,478.686340 343.068939,478.479309 339.309357,477.962677 
	C325.485260,476.063049 311.690186,473.947144 297.855774,472.128784 
	C283.838348,470.286377 269.774200,468.799988 255.755066,466.969635 
	C244.525650,465.503510 233.346069,463.657837 222.120392,462.160492 
	C210.875946,460.660675 199.595703,459.430298 188.346512,457.964142 
	C186.449539,457.716888 184.630173,456.874237 182.439865,456.136414 
z"/>
<path fill="#FFFFFF" opacity="1.000000" stroke="none" 
	d="
M314.035675,599.658569 
	C307.711578,606.020752 301.342255,611.899353 295.443054,618.216980 
	C292.455719,621.416260 289.141876,623.409363 284.948456,623.889038 
	C275.139923,625.011047 265.299866,625.862061 255.497421,627.031311 
	C243.106964,628.509216 230.748016,630.250000 218.361359,631.761780 
	C213.516434,632.353210 208.633194,632.630798 202.691238,633.144287 
	C211.848450,623.123413 220.286972,613.888977 228.781097,604.329956 
	C240.498260,591.162842 252.133514,578.296265 263.878113,565.530212 
	C264.697906,564.639160 266.316925,564.097839 267.583252,564.061951 
	C282.657990,563.634644 297.741852,563.488831 312.811920,562.950500 
	C324.345795,562.538513 335.863037,561.665527 347.388855,561.018127 
	C348.669617,560.946228 349.957947,561.008423 351.987091,562.064331 
	C339.386353,574.495117 326.785614,586.925903 314.035675,599.658569 
z"/>
<path fill="#D0B279" opacity="1.000000" stroke="none" 
	d="
M667.178223,461.179443 
	C668.381287,460.605835 669.808594,460.319092 671.620117,460.095978 
	C670.470398,460.595184 668.936462,461.030792 667.178223,461.179443 
z"/>
</svg>